  0
SECTION
  2
HEADER
  9
$ACADVER
  1
AC1018
  9
$ACADMAINTVER
 70
   104
  9
$DWGCODEPAGE
  3
ANSI_936
  9
$LASTSAVEDBY
  1
Administrator
  9
$INSBASE
 10
0.0
 20
0.0
 30
0.0
  9
$EXTMIN
 10
-1.85
 20
-1.05
 30
0.0
  9
$EXTMAX
 10
20.95
 20
24.65
 30
0.0
  9
$LIMMIN
 10
-4.8364
 20
-4.8364
  9
$LIMMAX
 10
29.7452
 20
29.7452
  9
$ORTHOMODE
 70
     0
  9
$REGENMODE
 70
     1
  9
$FILLMODE
 70
     1
  9
$QTEXTMODE
 70
     0
  9
$MIRRTEXT
 70
     0
  9
$LTSCALE
 40
1.0
  9
$ATTMODE
 70
     0
  9
$TEXTSIZE
 40
0.2
  9
$TRACEWID
 40
0.05
  9
$TEXTSTYLE
  7
STANDARD
  9
$CLAYER
  8
0
  9
$CELTYPE
  6
CONTINUOUS
  9
$CECOLOR
 62
   256
  9
$CELTSCALE
 40
1.0
  9
$DISPSILH
 70
     0
  9
$DIMSCALE
 40
1.0
  9
$DIMASZ
 40
0.18
  9
$DIMEXO
 40
0.0625
  9
$DIMDLI
 40
0.38
  9
$DIMRND
 40
0.0
  9
$DIMDLE
 40
0.0
  9
$DIMEXE
 40
0.18
  9
$DIMTP
 40
0.0
  9
$DIMTM
 40
0.0
  9
$DIMTXT
 40
0.18
  9
$DIMCEN
 40
0.09
  9
$DIMTSZ
 40
0.0
  9
$DIMTOL
 70
     0
  9
$DIMLIM
 70
     0
  9
$DIMTIH
 70
     1
  9
$DIMTOH
 70
     1
  9
$DIMSE1
 70
     0
  9
$DIMSE2
 70
     0
  9
$DIMTAD
 70
     0
  9
$DIMZIN
 70
     0
  9
$DIMBLK
  1

  9
$DIMASO
 70
     1
  9
$DIMSHO
 70
     1
  9
$DIMPOST
  1

  9
$DIMAPOST
  1

  9
$DIMALT
 70
     0
  9
$DIMALTD
 70
     2
  9
$DIMALTF
 40
25.4
  9
$DIMLFAC
 40
1.0
  9
$DIMTOFL
 70
     0
  9
$DIMTVP
 40
0.0
  9
$DIMTIX
 70
     0
  9
$DIMSOXD
 70
     0
  9
$DIMSAH
 70
     0
  9
$DIMBLK1
  1

  9
$DIMBLK2
  1

  9
$DIMSTYLE
  2
Standard
  9
$DIMCLRD
 70
     0
  9
$DIMCLRE
 70
     0
  9
$DIMCLRT
 70
     0
  9
$DIMTFAC
 40
1.0
  9
$DIMGAP
 40
0.09
  9
$DIMJUST
 70
     0
  9
$DIMSD1
 70
     0
  9
$DIMSD2
 70
     0
  9
$DIMTOLJ
 70
     1
  9
$DIMTZIN
 70
     0
  9
$DIMALTZ
 70
     0
  9
$DIMALTTZ
 70
     0
  9
$DIMUPT
 70
     0
  9
$DIMDEC
 70
     4
  9
$DIMTDEC
 70
     4
  9
$DIMALTU
 70
     2
  9
$DIMALTTD
 70
     2
  9
$DIMTXSTY
  7
STANDARD
  9
$DIMAUNIT
 70
     0
  9
$DIMADEC
 70
     0
  9
$DIMALTRND
 40
0.0
  9
$DIMAZIN
 70
     0
  9
$DIMDSEP
 70
    46
  9
$DIMATFIT
 70
     3
  9
$DIMFRAC
 70
     0
  9
$DIMLDRBLK
  1

  9
$DIMLUNIT
 70
     2
  9
$DIMLWD
 70
    -2
  9
$DIMLWE
 70
    -2
  9
$DIMTMOVE
 70
     0
  9
$LUNITS
 70
     2
  9
$LUPREC
 70
     4
  9
$SKETCHINC
 40
0.1
  9
$FILLETRAD
 40
0.0
  9
$AUNITS
 70
     0
  9
$AUPREC
 70
     0
  9
$MENU
  1
.
  9
$ELEVATION
 40
0.0
  9
$PELEVATION
 40
0.0
  9
$THICKNESS
 40
0.7315199999999999
  9
$LIMCHECK
 70
     0
  9
$CHAMFERA
 40
0.0
  9
$CHAMFERB
 40
0.0
  9
$CHAMFERC
 40
0.0
  9
$CHAMFERD
 40
0.0
  9
$SKPOLY
 70
     0
  9
$TDCREATE
 40
2458176.395049583
  9
$TDUCREATE
 40
2458176.061716250
  9
$TDUPDATE
 40
2458176.399801262
  9
$TDUUPDATE
 40
2458176.066467928
  9
$TDINDWG
 40
0.0047520949
  9
$TDUSRTIMER
 40
0.0047520949
  9
$USRTIMER
 70
     1
  9
$ANGBASE
 50
0.0
  9
$ANGDIR
 70
     0
  9
$PDMODE
 70
     0
  9
$PDSIZE
 40
0.0
  9
$PLINEWID
 40
0.0
  9
$SPLFRAME
 70
     0
  9
$SPLINETYPE
 70
     6
  9
$SPLINESEGS
 70
     8
  9
$HANDSEED
  5
7D4
  9
$SURFTAB1
 70
     6
  9
$SURFTAB2
 70
     6
  9
$SURFTYPE
 70
     6
  9
$SURFU
 70
     6
  9
$SURFV
 70
     6
  9
$UCSBASE
  2

  9
$UCSNAME
  2

  9
$UCSORG
 10
0.0
 20
0.0
 30
0.0
  9
$UCSXDIR
 10
1.0
 20
0.0
 30
0.0
  9
$UCSYDIR
 10
0.0
 20
1.0
 30
0.0
  9
$UCSORTHOREF
  2

  9
$UCSORTHOVIEW
 70
     0
  9
$UCSORGTOP
 10
0.0
 20
0.0
 30
0.0
  9
$UCSORGBOTTOM
 10
0.0
 20
0.0
 30
0.0
  9
$UCSORGLEFT
 10
0.0
 20
0.0
 30
0.0
  9
$UCSORGRIGHT
 10
0.0
 20
0.0
 30
0.0
  9
$UCSORGFRONT
 10
0.0
 20
0.0
 30
0.0
  9
$UCSORGBACK
 10
0.0
 20
0.0
 30
0.0
  9
$PUCSBASE
  2

  9
$PUCSNAME
  2

  9
$PUCSORG
 10
0.0
 20
0.0
 30
0.0
  9
$PUCSXDIR
 10
1.0
 20
0.0
 30
0.0
  9
$PUCSYDIR
 10
0.0
 20
1.0
 30
0.0
  9
$PUCSORTHOREF
  2

  9
$PUCSORTHOVIEW
 70
     0
  9
$PUCSORGTOP
 10
0.0
 20
0.0
 30
0.0
  9
$PUCSORGBOTTOM
 10
0.0
 20
0.0
 30
0.0
  9
$PUCSORGLEFT
 10
0.0
 20
0.0
 30
0.0
  9
$PUCSORGRIGHT
 10
0.0
 20
0.0
 30
0.0
  9
$PUCSORGFRONT
 10
0.0
 20
0.0
 30
0.0
  9
$PUCSORGBACK
 10
0.0
 20
0.0
 30
0.0
  9
$USERI1
 70
     0
  9
$USERI2
 70
     0
  9
$USERI3
 70
     0
  9
$USERI4
 70
     0
  9
$USERI5
 70
     0
  9
$USERR1
 40
0.0
  9
$USERR2
 40
0.0
  9
$USERR3
 40
0.0
  9
$USERR4
 40
0.0
  9
$USERR5
 40
0.0
  9
$WORLDVIEW
 70
     1
  9
$SHADEDGE
 70
     3
  9
$SHADEDIF
 70
    70
  9
$TILEMODE
 70
     1
  9
$MAXACTVP
 70
    64
  9
$PINSBASE
 10
0.0
 20
0.0
 30
0.0
  9
$PLIMCHECK
 70
     0
  9
$PEXTMIN
 10
1.000000000000000E+20
 20
1.000000000000000E+20
 30
1.000000000000000E+20
  9
$PEXTMAX
 10
-1.000000000000000E+20
 20
-1.000000000000000E+20
 30
-1.000000000000000E+20
  9
$PLIMMIN
 10
0.0
 20
0.0
  9
$PLIMMAX
 10
12.0
 20
9.0
  9
$UNITMODE
 70
     0
  9
$VISRETAIN
 70
     1
  9
$PLINEGEN
 70
     0
  9
$PSLTSCALE
 70
     1
  9
$TREEDEPTH
 70
  3020
  9
$CMLSTYLE
  2
Standard
  9
$CMLJUST
 70
     0
  9
$CMLSCALE
 40
1.0
  9
$PROXYGRAPHICS
 70
     1
  9
$MEASUREMENT
 70
     0
  9
$CELWEIGHT
370
    -1
  9
$ENDCAPS
280
     0
  9
$JOINSTYLE
280
     0
  9
$LWDISPLAY
290
     0
  9
$INSUNITS
 70
     0
  9
$HYPERLINKBASE
  1

  9
$STYLESHEET
  1

  9
$XEDIT
290
     1
  9
$CEPSNTYPE
380
     0
  9
$PSTYLEMODE
290
     1
  9
$FINGERPRINTGUID
  2
{097D67A0-645C-4049-A769-2B6CB86DE6AA}
  9
$VERSIONGUID
  2
{6AC5EDF3-1FB3-42CA-B377-9CBAD3984CEA}
  9
$EXTNAMES
290
     1
  9
$PSVPSCALE
 40
0.0
  9
$OLESTARTUP
290
     0
  9
$SORTENTS
280
   127
  9
$INDEXCTL
280
     0
  9
$HIDETEXT
280
     0
  9
$XCLIPFRAME
290
     0
  9
$HALOGAP
280
     0
  9
$OBSCOLOR
 70
   257
  9
$OBSLTYPE
280
     0
  9
$INTERSECTIONDISPLAY
280
     0
  9
$INTERSECTIONCOLOR
 70
   257
  9
$DIMASSOC
280
     1
  9
$PROJECTNAME
  1

  0
ENDSEC
  0
SECTION
  2
CLASSES
  0
CLASS
  1
ACDBDICTIONARYWDFLT
  2
AcDbDictionaryWithDefault
  3
ObjectDBX Classes
 90
        0
 91
        1
280
     0
281
     0
  0
CLASS
  1
MATERIAL
  2
AcDbMaterial
  3
ObjectDBX Classes
 90
     1024
 91
        3
280
     0
281
     0
  0
CLASS
  1
VISUALSTYLE
  2
AcDbVisualStyle
  3
ObjectDBX Classes
 90
     4095
 91
       16
280
     0
281
     0
  0
CLASS
  1
TABLESTYLE
  2
AcDbTableStyle
  3
ObjectDBX Classes
 90
     4095
 91
        1
280
     0
281
     0
  0
CLASS
  1
DICTIONARYVAR
  2
AcDbDictionaryVar
  3
ObjectDBX Classes
 90
        0
 91
        1
280
     0
281
     0
  0
ENDSEC
  0
SECTION
  2
TABLES
  0
TABLE
  2
VPORT
  5
8
330
0
100
AcDbSymbolTable
 70
     1
  0
VPORT
  5
40
330
8
100
AcDbSymbolTableRecord
100
AcDbViewportTableRecord
  2
*Active
 70
     0
 10
0.0
 20
0.0
 11
1.0
 21
1.0
 12
9.12474054678746
 22
6.709181222545318
 13
0.0
 23
0.0
 14
1.0
 24
1.0
 15
0.0
 25
0.0
 16
0.0
 26
0.0
 36
1.0
 17
0.0
 27
0.0
 37
0.0
 40
15.12101685432255
 41
2.439163498098859
 42
50.0
 43
0.0
 44
0.0
 50
0.0
 51
0.0
 71
     0
 72
   100
 73
     1
 74
     1
 75
     0
 76
     0
 77
     0
 78
     0
281
     0
 65
     1
110
0.0
120
0.0
130
0.0
111
1.0
121
0.0
131
0.0
112
0.0
122
1.0
132
0.0
 79
     0
146
0.0
  0
ENDTAB
  0
TABLE
  2
LTYPE
  5
5
330
0
100
AcDbSymbolTable
 70
     2
  0
LTYPE
  5
28
330
5
100
AcDbSymbolTableRecord
100
AcDbLinetypeTableRecord
  2
ByBlock
 70
     0
  3

 72
    65
 73
     0
 40
0.0
  0
LTYPE
  5
29
330
5
100
AcDbSymbolTableRecord
100
AcDbLinetypeTableRecord
  2
ByLayer
 70
     0
  3

 72
    65
 73
     0
 40
0.0
  0
LTYPE
  5
2A
330
5
100
AcDbSymbolTableRecord
100
AcDbLinetypeTableRecord
  2
CONTINUOUS
 70
     0
  3
Solid Line
 72
    65
 73
     0
 40
0.0
  0
ENDTAB
  0
TABLE
  2
LAYER
  5
2
330
0
100
AcDbSymbolTable
 70
     6
  0
LAYER
  5
25
330
2
100
AcDbSymbolTableRecord
100
AcDbLayerTableRecord
  2
0
 70
     0
 62
     7
  6
CONTINUOUS
370
    -3
390
F
  0
LAYER
  5
3A
330
2
100
AcDbSymbolTableRecord
100
AcDbLayerTableRecord
  2
TOP
 70
     0
 62
    80
  6
CONTINUOUS
370
    -3
390
F
  0
LAYER
  5
3B
330
2
100
AcDbSymbolTableRecord
100
AcDbLayerTableRecord
  2
PASTEMASK_TOP
 70
     0
 62
    85
  6
CONTINUOUS
370
    -3
390
F
  0
LAYER
  5
3C
330
2
100
AcDbSymbolTableRecord
100
AcDbLayerTableRecord
  2
SOLDERMASK_TOP
 70
     0
 62
    85
  6
CONTINUOUS
370
    -3
390
F
  0
LAYER
  5
3D
330
2
100
AcDbSymbolTableRecord
100
AcDbLayerTableRecord
  2
SILKSCREEN_TOP
 70
     0
 62
     2
  6
CONTINUOUS
370
    -3
390
F
  0
LAYER
  5
3E
330
2
100
AcDbSymbolTableRecord
100
AcDbLayerTableRecord
  2
PIN_NUMBER
 70
     0
 62
    85
  6
CONTINUOUS
370
    -3
390
F
  0
ENDTAB
  0
TABLE
  2
STYLE
  5
3
330
0
100
AcDbSymbolTable
 70
     1
  0
STYLE
  5
26
330
3
100
AcDbSymbolTableRecord
100
AcDbTextStyleTableRecord
  2
STANDARD
 70
     0
 40
0.0
 41
1.0
 50
0.0
 71
     0
 42
0.2
  3
txt
  4

  0
ENDTAB
  0
TABLE
  2
VIEW
  5
6
330
0
100
AcDbSymbolTable
 70
     0
  0
ENDTAB
  0
TABLE
  2
UCS
  5
7
330
0
100
AcDbSymbolTable
 70
     0
  0
ENDTAB
  0
TABLE
  2
APPID
  5
9
330
0
100
AcDbSymbolTable
 70
     1
  0
APPID
  5
27
330
9
100
AcDbSymbolTableRecord
100
AcDbRegAppTableRecord
  2
ACAD
 70
     0
  0
ENDTAB
  0
TABLE
  2
DIMSTYLE
  5
A
330
0
100
AcDbSymbolTable
 70
     2
100
AcDbDimStyleTable
 71
     1
340
7C2
  0
DIMSTYLE
105
7C2
330
A
100
AcDbSymbolTableRecord
100
AcDbDimStyleTableRecord
  2
Standard
 70
     0
340
26
  0
ENDTAB
  0
TABLE
  2
BLOCK_RECORD
  5
1
330
0
100
AcDbSymbolTable
 70
     9
  0
BLOCK_RECORD
  5
36
330
1
100
AcDbSymbolTableRecord
100
AcDbBlockTableRecord
  2
*Model_Space
340
39
  0
BLOCK_RECORD
  5
32
330
1
100
AcDbSymbolTableRecord
100
AcDbBlockTableRecord
  2
*Paper_Space
340
35
  0
BLOCK_RECORD
  5
41
330
1
100
AcDbSymbolTableRecord
100
AcDbBlockTableRecord
  2
FIGURE_CIRCLE
340
0
  0
BLOCK_RECORD
  5
45
330
1
100
AcDbSymbolTableRecord
100
AcDbBlockTableRecord
  2
FIGURE_SQUARE
340
0
  0
BLOCK_RECORD
  5
4E
330
1
100
AcDbSymbolTableRecord
100
AcDbBlockTableRecord
  2
FIGURE_HEX
340
0
  0
BLOCK_RECORD
  5
59
330
1
100
AcDbSymbolTableRecord
100
AcDbBlockTableRecord
  2
FIGURE_OCT
340
0
  0
BLOCK_RECORD
  5
66
330
1
100
AcDbSymbolTableRecord
100
AcDbBlockTableRecord
  2
FIGURE_OBLONG
340
0
  0
BLOCK_RECORD
  5
77
330
1
100
AcDbSymbolTableRecord
100
AcDbBlockTableRecord
  2
FIGURE_TRI
340
0
  0
BLOCK_RECORD
  5
7F
330
1
100
AcDbSymbolTableRecord
100
AcDbBlockTableRecord
  2
FIGURE_CROSS
340
0
  0
BLOCK_RECORD
  5
8A
330
1
100
AcDbSymbolTableRecord
100
AcDbBlockTableRecord
  2
FIGURE_DIAMOND
340
0
  0
ENDTAB
  0
ENDSEC
  0
SECTION
  2
BLOCKS
  0
BLOCK
  5
37
330
36
100
AcDbEntity
  8
0
100
AcDbBlockBegin
  2
*Model_Space
 70
     0
 10
0.0
 20
0.0
 30
0.0
  3
*Model_Space
  1

  0
ENDBLK
  5
38
330
36
100
AcDbEntity
  8
0
100
AcDbBlockEnd
  0
BLOCK
  5
33
330
32
100
AcDbEntity
 67
     1
  8
0
100
AcDbBlockBegin
  2
*Paper_Space
 70
     0
 10
0.0
 20
0.0
 30
0.0
  3
*Paper_Space
  1

  0
ENDBLK
  5
34
330
32
100
AcDbEntity
 67
     1
  8
0
100
AcDbBlockEnd
  0
BLOCK
  5
42
330
41
100
AcDbEntity
  8
0
100
AcDbBlockBegin
  2
FIGURE_CIRCLE
 70
     0
 10
0.0
 20
0.0
 30
0.0
  3
FIGURE_CIRCLE
  1

  0
CIRCLE
  5
43
330
41
100
AcDbEntity
  8
0
100
AcDbCircle
 10
0.0
 20
0.0
 30
0.0
 40
0.5
  0
ENDBLK
  5
44
330
41
100
AcDbEntity
  8
0
100
AcDbBlockEnd
  0
BLOCK
  5
46
330
45
100
AcDbEntity
  8
0
100
AcDbBlockBegin
  2
FIGURE_SQUARE
 70
     0
 10
0.0
 20
0.0
 30
0.0
  3
FIGURE_SQUARE
  1

  0
LWPOLYLINE
  5
47
330
45
100
AcDbEntity
  8
0
100
AcDbPolyline
 90
        4
 70
     1
 43
0.0
 10
-0.5
 20
-0.5
 10
-0.5
 20
0.5
 10
0.5
 20
0.5
 10
0.5
 20
-0.5
  0
ENDBLK
  5
4D
330
45
100
AcDbEntity
  8
0
100
AcDbBlockEnd
  0
BLOCK
  5
4F
330
4E
100
AcDbEntity
  8
0
100
AcDbBlockBegin
  2
FIGURE_HEX
 70
     0
 10
0.0
 20
0.0
 30
0.0
  3
FIGURE_HEX
  1

  0
LWPOLYLINE
  5
50
330
4E
100
AcDbEntity
  8
0
100
AcDbPolyline
 90
        6
 70
     1
 43
0.0
 10
-0.5
 20
0.0
 10
-0.25
 20
0.5
 10
0.25
 20
0.5
 10
0.5
 20
0.0
 10
0.25
 20
-0.5
 10
-0.25
 20
-0.5
  0
ENDBLK
  5
58
330
4E
100
AcDbEntity
  8
0
100
AcDbBlockEnd
  0
BLOCK
  5
5A
330
59
100
AcDbEntity
  8
0
100
AcDbBlockBegin
  2
FIGURE_OCT
 70
     0
 10
0.0
 20
0.0
 30
0.0
  3
FIGURE_OCT
  1

  0
LWPOLYLINE
  5
5B
330
59
100
AcDbEntity
  8
0
100
AcDbPolyline
 90
        8
 70
     1
 43
0.0
 10
-0.5
 20
-0.2071
 10
-0.5
 20
0.2071
 10
-0.2071
 20
0.5
 10
0.2071
 20
0.5
 10
0.5
 20
0.2071
 10
0.5
 20
-0.2071
 10
0.2071
 20
-0.5
 10
-0.2071
 20
-0.5
  0
ENDBLK
  5
65
330
59
100
AcDbEntity
  8
0
100
AcDbBlockEnd
  0
BLOCK
  5
67
330
66
100
AcDbEntity
  8
0
100
AcDbBlockBegin
  2
FIGURE_OBLONG
 70
     0
 10
0.0
 20
0.0
 30
0.0
  3
FIGURE_OBLONG
  1

  0
LWPOLYLINE
  5
68
330
66
100
AcDbEntity
  8
0
100
AcDbPolyline
 90
       12
 70
     1
 43
0.0
 10
-0.5
 20
-0.125
 10
-0.5
 20
0.125
 10
-0.4160000000000001
 20
0.375
 10
-0.25
 20
0.5
 10
0.25
 20
0.5
 10
0.4160000000000001
 20
0.375
 10
0.5
 20
0.125
 10
0.5
 20
-0.125
 10
0.4160000000000001
 20
-0.375
 10
0.25
 20
-0.5
 10
-0.25
 20
-0.5
 10
-0.4160000000000001
 20
-0.375
  0
ENDBLK
  5
76
330
66
100
AcDbEntity
  8
0
100
AcDbBlockEnd
  0
BLOCK
  5
78
330
77
100
AcDbEntity
  8
0
100
AcDbBlockBegin
  2
FIGURE_TRI
 70
     0
 10
0.0
 20
0.0
 30
0.0
  3
FIGURE_TRI
  1

  0
LWPOLYLINE
  5
79
330
77
100
AcDbEntity
  8
0
100
AcDbPolyline
 90
        3
 70
     1
 43
0.0
 10
-0.5
 20
-0.5
 10
0.0
 20
0.5
 10
0.5
 20
-0.5
  0
ENDBLK
  5
7E
330
77
100
AcDbEntity
  8
0
100
AcDbBlockEnd
  0
BLOCK
  5
80
330
7F
100
AcDbEntity
  8
0
100
AcDbBlockBegin
  2
FIGURE_CROSS
 70
     0
 10
0.0
 20
0.0
 30
0.0
  3
FIGURE_CROSS
  1

  0
LWPOLYLINE
  5
81
330
7F
100
AcDbEntity
  8
0
100
AcDbPolyline
 90
        2
 70
     0
 43
0.0
 10
-0.5
 20
0.0
 10
0.5
 20
0.0
  0
LWPOLYLINE
  5
85
330
7F
100
AcDbEntity
  8
0
100
AcDbPolyline
 90
        2
 70
     0
 43
0.0
 10
0.0
 20
0.5
 10
0.0
 20
-0.5
  0
ENDBLK
  5
89
330
7F
100
AcDbEntity
  8
0
100
AcDbBlockEnd
  0
BLOCK
  5
8B
330
8A
100
AcDbEntity
  8
0
100
AcDbBlockBegin
  2
FIGURE_DIAMOND
 70
     0
 10
0.0
 20
0.0
 30
0.0
  3
FIGURE_DIAMOND
  1

  0
LWPOLYLINE
  5
8C
330
8A
100
AcDbEntity
  8
0
100
AcDbPolyline
 90
        4
 70
     1
 43
0.0
 10
-0.5
 20
0.0
 10
0.0
 20
0.5
 10
0.5
 20
0.0
 10
0.0
 20
-0.5
  0
ENDBLK
  5
92
330
8A
100
AcDbEntity
  8
0
100
AcDbBlockEnd
  0
ENDSEC
  0
SECTION
  2
ENTITIES
  0
LWPOLYLINE
  5
93
330
36
100
AcDbEntity
  8
SILKSCREEN_TOP
100
AcDbPolyline
 90
        2
 70
     0
 43
0.12
 10
0.0
 20
0.0
 10
0.0
 20
2.75
  0
LWPOLYLINE
  5
97
330
36
100
AcDbEntity
  8
SILKSCREEN_TOP
100
AcDbPolyline
 90
        2
 70
     0
 43
0.12
 10
0.0
 20
23.6
 10
3.1
 20
23.6
  0
LWPOLYLINE
  5
9B
330
36
100
AcDbEntity
  8
SILKSCREEN_TOP
100
AcDbPolyline
 90
        2
 70
     0
 43
0.12
 10
19.9
 20
23.6
 10
19.9
 20
20.85
  0
LWPOLYLINE
  5
9F
330
36
100
AcDbEntity
  8
SILKSCREEN_TOP
100
AcDbPolyline
 90
        2
 70
     0
 43
0.12
 10
19.9
 20
0.0
 10
16.5
 20
0.0
  0
LWPOLYLINE
  5
A3
330
36
100
AcDbEntity
  8
SILKSCREEN_TOP
100
AcDbPolyline
 90
        2
 70
     0
 43
0.12
 10
16.5
 20
23.6
 10
19.9
 20
23.6
  0
LWPOLYLINE
  5
A7
330
36
100
AcDbEntity
  8
SILKSCREEN_TOP
100
AcDbPolyline
 90
        2
 70
     0
 43
0.12
 10
0.0
 20
20.95
 10
0.0
 20
23.6
  0
LWPOLYLINE
  5
AB
330
36
100
AcDbEntity
  8
SILKSCREEN_TOP
100
AcDbPolyline
 90
        2
 70
     0
 43
0.12
 10
3.049999999999999
 20
0.0
 10
0.0
 20
0.0
  0
LWPOLYLINE
  5
AF
330
36
100
AcDbEntity
  8
SILKSCREEN_TOP
100
AcDbPolyline
 90
        2
 70
     0
 43
0.12
 10
10.0
 20
0.0
 10
8.5
 20
0.0
  0
LWPOLYLINE
  5
B3
330
36
100
AcDbEntity
  8
SILKSCREEN_TOP
100
AcDbPolyline
 90
        2
 70
     0
 43
0.12
 10
19.9
 20
2.799999999999999
 10
19.9
 20
0.0
  0
LWPOLYLINE
  5
B7
330
36
100
AcDbEntity
  8
SILKSCREEN_TOP
100
AcDbPolyline
 90
        2
 70
     0
 43
0.12
 10
19.9
 20
11.15
 10
19.9
 20
10.4
  0
LWPOLYLINE
  5
BB
330
36
100
AcDbEntity
  8
SILKSCREEN_TOP
100
AcDbPolyline
 90
        2
 70
     0
 43
0.12
 10
0.0
 20
11.15
 10
0.0
 20
10.4
  0
LWPOLYLINE
  5
BF
330
36
100
AcDbEntity
  8
SILKSCREEN_TOP
100
AcDbPolyline
 90
        2
 70
     0
 43
0.12
 10
10.0
 20
23.6
 10
8.5
 20
23.6
  0
LWPOLYLINE
  5
C3
330
36
100
AcDbEntity
  8
SILKSCREEN_TOP
100
AcDbPolyline
 90
        3
 70
     1
 43
0.0
 10
-1.85
 20
21.55
 10
-0.55
 20
22.85
 10
-0.55
 20
21.55
  0
LWPOLYLINE
  5
C8
330
36
100
AcDbEntity
  8
TOP
100
AcDbPolyline
 90
        4
 70
     1
 43
0.0
 10
1.50005
 20
20.05
 10
-1.00005
 20
20.05
 10
-1.00005
 20
20.75
 10
1.50005
 20
20.75
  0
LWPOLYLINE
  5
D4
330
36
100
AcDbEntity
  8
PASTEMASK_TOP
100
AcDbPolyline
 90
        4
 70
     1
 43
0.0
 10
1.50005
 20
20.05
 10
-1.00005
 20
20.05
 10
-1.00005
 20
20.75
 10
1.50005
 20
20.75
  0
TEXT
  5
DA
330
36
100
AcDbEntity
  8
PIN_NUMBER
100
AcDbText
 10
0.1466667
 20
20.4
 30
0.0
 40
0.3
  1
1
 41
1.033333
 72
     2
 11
0.25
 21
20.4
 31
0.0
100
AcDbText
  0
LWPOLYLINE
  5
DB
330
36
100
AcDbEntity
  8
TOP
100
AcDbPolyline
 90
        4
 70
     1
 43
0.0
 10
1.50005
 20
18.95
 10
-1.00005
 20
18.95
 10
-1.00005
 20
19.65
 10
1.50005
 20
19.65
  0
LWPOLYLINE
  5
E7
330
36
100
AcDbEntity
  8
PASTEMASK_TOP
100
AcDbPolyline
 90
        4
 70
     1
 43
0.0
 10
1.50005
 20
18.95
 10
-1.00005
 20
18.95
 10
-1.00005
 20
19.65
 10
1.50005
 20
19.65
  0
TEXT
  5
ED
330
36
100
AcDbEntity
  8
PIN_NUMBER
100
AcDbText
 10
0.0433334
 20
19.3
 30
0.0
 40
0.3
  1
2
 41
1.033333
 72
     2
 11
0.25
 21
19.3
 31
0.0
100
AcDbText
  0
LWPOLYLINE
  5
EE
330
36
100
AcDbEntity
  8
TOP
100
AcDbPolyline
 90
        4
 70
     1
 43
0.0
 10
1.50005
 20
17.85
 10
-1.00005
 20
17.85
 10
-1.00005
 20
18.55
 10
1.50005
 20
18.55
  0
LWPOLYLINE
  5
FA
330
36
100
AcDbEntity
  8
PASTEMASK_TOP
100
AcDbPolyline
 90
        4
 70
     1
 43
0.0
 10
1.50005
 20
17.85
 10
-1.00005
 20
17.85
 10
-1.00005
 20
18.55
 10
1.50005
 20
18.55
  0
TEXT
  5
100
330
36
100
AcDbEntity
  8
PIN_NUMBER
100
AcDbText
 10
0.0433334
 20
18.2
 30
0.0
 40
0.3
  1
3
 41
1.033333
 72
     2
 11
0.25
 21
18.2
 31
0.0
100
AcDbText
  0
LWPOLYLINE
  5
101
330
36
100
AcDbEntity
  8
TOP
100
AcDbPolyline
 90
        4
 70
     1
 43
0.0
 10
1.50005
 20
16.75
 10
-1.00005
 20
16.75
 10
-1.00005
 20
17.45
 10
1.50005
 20
17.45
  0
LWPOLYLINE
  5
10D
330
36
100
AcDbEntity
  8
PASTEMASK_TOP
100
AcDbPolyline
 90
        4
 70
     1
 43
0.0
 10
1.50005
 20
16.75
 10
-1.00005
 20
16.75
 10
-1.00005
 20
17.45
 10
1.50005
 20
17.45
  0
TEXT
  5
113
330
36
100
AcDbEntity
  8
PIN_NUMBER
100
AcDbText
 10
0.0433334
 20
17.1
 30
0.0
 40
0.3
  1
4
 41
1.033333
 72
     2
 11
0.25
 21
17.1
 31
0.0
100
AcDbText
  0
LWPOLYLINE
  5
114
330
36
100
AcDbEntity
  8
TOP
100
AcDbPolyline
 90
        4
 70
     1
 43
0.0
 10
1.50005
 20
15.65
 10
-1.00005
 20
15.65
 10
-1.00005
 20
16.35
 10
1.50005
 20
16.35
  0
LWPOLYLINE
  5
120
330
36
100
AcDbEntity
  8
PASTEMASK_TOP
100
AcDbPolyline
 90
        4
 70
     1
 43
0.0
 10
1.50005
 20
15.65
 10
-1.00005
 20
15.65
 10
-1.00005
 20
16.35
 10
1.50005
 20
16.35
  0
TEXT
  5
126
330
36
100
AcDbEntity
  8
PIN_NUMBER
100
AcDbText
 10
0.0433334
 20
16.0
 30
0.0
 40
0.3
  1
5
 41
1.033333
 72
     2
 11
0.25
 21
16.0
 31
0.0
100
AcDbText
  0
LWPOLYLINE
  5
127
330
36
100
AcDbEntity
  8
TOP
100
AcDbPolyline
 90
        4
 70
     1
 43
0.0
 10
1.50005
 20
14.55
 10
-1.00005
 20
14.55
 10
-1.00005
 20
15.25
 10
1.50005
 20
15.25
  0
LWPOLYLINE
  5
133
330
36
100
AcDbEntity
  8
PASTEMASK_TOP
100
AcDbPolyline
 90
        4
 70
     1
 43
0.0
 10
1.50005
 20
14.55
 10
-1.00005
 20
14.55
 10
-1.00005
 20
15.25
 10
1.50005
 20
15.25
  0
TEXT
  5
139
330
36
100
AcDbEntity
  8
PIN_NUMBER
100
AcDbText
 10
0.0433334
 20
14.9
 30
0.0
 40
0.3
  1
6
 41
1.033333
 72
     2
 11
0.25
 21
14.9
 31
0.0
100
AcDbText
  0
LWPOLYLINE
  5
13A
330
36
100
AcDbEntity
  8
TOP
100
AcDbPolyline
 90
        4
 70
     1
 43
0.0
 10
1.50005
 20
13.45
 10
-1.00005
 20
13.45
 10
-1.00005
 20
14.15
 10
1.50005
 20
14.15
  0
LWPOLYLINE
  5
146
330
36
100
AcDbEntity
  8
PASTEMASK_TOP
100
AcDbPolyline
 90
        4
 70
     1
 43
0.0
 10
1.50005
 20
13.45
 10
-1.00005
 20
13.45
 10
-1.00005
 20
14.15
 10
1.50005
 20
14.15
  0
TEXT
  5
14C
330
36
100
AcDbEntity
  8
PIN_NUMBER
100
AcDbText
 10
0.0433334
 20
13.8
 30
0.0
 40
0.3
  1
7
 41
1.033333
 72
     2
 11
0.25
 21
13.8
 31
0.0
100
AcDbText
  0
LWPOLYLINE
  5
14D
330
36
100
AcDbEntity
  8
TOP
100
AcDbPolyline
 90
        4
 70
     1
 43
0.0
 10
1.50005
 20
12.35
 10
-1.00005
 20
12.35
 10
-1.00005
 20
13.05
 10
1.50005
 20
13.05
  0
LWPOLYLINE
  5
159
330
36
100
AcDbEntity
  8
PASTEMASK_TOP
100
AcDbPolyline
 90
        4
 70
     1
 43
0.0
 10
1.50005
 20
12.35
 10
-1.00005
 20
12.35
 10
-1.00005
 20
13.05
 10
1.50005
 20
13.05
  0
TEXT
  5
15F
330
36
100
AcDbEntity
  8
PIN_NUMBER
100
AcDbText
 10
0.0433334
 20
12.7
 30
0.0
 40
0.3
  1
8
 41
1.033333
 72
     2
 11
0.25
 21
12.7
 31
0.0
100
AcDbText
  0
LWPOLYLINE
  5
160
330
36
100
AcDbEntity
  8
TOP
100
AcDbPolyline
 90
        4
 70
     1
 43
0.0
 10
1.50005
 20
11.25
 10
-1.00005
 20
11.25
 10
-1.00005
 20
11.95
 10
1.50005
 20
11.95
  0
LWPOLYLINE
  5
16C
330
36
100
AcDbEntity
  8
PASTEMASK_TOP
100
AcDbPolyline
 90
        4
 70
     1
 43
0.0
 10
1.50005
 20
11.25
 10
-1.00005
 20
11.25
 10
-1.00005
 20
11.95
 10
1.50005
 20
11.95
  0
TEXT
  5
172
330
36
100
AcDbEntity
  8
PIN_NUMBER
100
AcDbText
 10
0.0433334
 20
11.6
 30
0.0
 40
0.3
  1
9
 41
1.033333
 72
     2
 11
0.25
 21
11.6
 31
0.0
100
AcDbText
  0
LWPOLYLINE
  5
173
330
36
100
AcDbEntity
  8
TOP
100
AcDbPolyline
 90
        4
 70
     1
 43
0.0
 10
1.50005
 20
9.55
 10
-1.00005
 20
9.55
 10
-1.00005
 20
10.25
 10
1.50005
 20
10.25
  0
LWPOLYLINE
  5
17F
330
36
100
AcDbEntity
  8
PASTEMASK_TOP
100
AcDbPolyline
 90
        4
 70
     1
 43
0.0
 10
1.50005
 20
9.55
 10
-1.00005
 20
9.55
 10
-1.00005
 20
10.25
 10
1.50005
 20
10.25
  0
TEXT
  5
185
330
36
100
AcDbEntity
  8
PIN_NUMBER
100
AcDbText
 10
-0.1116665499999999
 20
9.9
 30
0.0
 40
0.3
  1
10
 41
1.033333
 72
     2
 11
0.25
 21
9.9
 31
0.0
100
AcDbText
  0
LWPOLYLINE
  5
186
330
36
100
AcDbEntity
  8
TOP
100
AcDbPolyline
 90
        4
 70
     1
 43
0.0
 10
1.50005
 20
8.449999999999999
 10
-1.00005
 20
8.449999999999999
 10
-1.00005
 20
9.15
 10
1.50005
 20
9.15
  0
LWPOLYLINE
  5
192
330
36
100
AcDbEntity
  8
PASTEMASK_TOP
100
AcDbPolyline
 90
        4
 70
     1
 43
0.0
 10
1.50005
 20
8.449999999999999
 10
-1.00005
 20
8.449999999999999
 10
-1.00005
 20
9.15
 10
1.50005
 20
9.15
  0
TEXT
  5
198
330
36
100
AcDbEntity
  8
PIN_NUMBER
100
AcDbText
 10
-0.0599999
 20
8.8
 30
0.0
 40
0.3
  1
11
 41
1.033333
 72
     2
 11
0.25
 21
8.8
 31
0.0
100
AcDbText
  0
LWPOLYLINE
  5
199
330
36
100
AcDbEntity
  8
TOP
100
AcDbPolyline
 90
        4
 70
     1
 43
0.0
 10
1.50005
 20
7.349999999999999
 10
-1.00005
 20
7.349999999999999
 10
-1.00005
 20
8.05
 10
1.50005
 20
8.05
  0
LWPOLYLINE
  5
1A5
330
36
100
AcDbEntity
  8
PASTEMASK_TOP
100
AcDbPolyline
 90
        4
 70
     1
 43
0.0
 10
1.50005
 20
7.349999999999999
 10
-1.00005
 20
7.349999999999999
 10
-1.00005
 20
8.05
 10
1.50005
 20
8.05
  0
TEXT
  5
1AB
330
36
100
AcDbEntity
  8
PIN_NUMBER
100
AcDbText
 10
-0.1633332
 20
7.7
 30
0.0
 40
0.3
  1
12
 41
1.033333
 72
     2
 11
0.25
 21
7.7
 31
0.0
100
AcDbText
  0
LWPOLYLINE
  5
1AC
330
36
100
AcDbEntity
  8
TOP
100
AcDbPolyline
 90
        4
 70
     1
 43
0.0
 10
1.50005
 20
6.25
 10
-1.00005
 20
6.25
 10
-1.00005
 20
6.95
 10
1.50005
 20
6.95
  0
LWPOLYLINE
  5
1B8
330
36
100
AcDbEntity
  8
PASTEMASK_TOP
100
AcDbPolyline
 90
        4
 70
     1
 43
0.0
 10
1.50005
 20
6.25
 10
-1.00005
 20
6.25
 10
-1.00005
 20
6.95
 10
1.50005
 20
6.95
  0
TEXT
  5
1BE
330
36
100
AcDbEntity
  8
PIN_NUMBER
100
AcDbText
 10
-0.1633331999999999
 20
6.599999999999999
 30
0.0
 40
0.3
  1
13
 41
1.033333
 72
     2
 11
0.25
 21
6.599999999999999
 31
0.0
100
AcDbText
  0
LWPOLYLINE
  5
1BF
330
36
100
AcDbEntity
  8
TOP
100
AcDbPolyline
 90
        4
 70
     1
 43
0.0
 10
1.50005
 20
5.15
 10
-1.00005
 20
5.15
 10
-1.00005
 20
5.849999999999999
 10
1.50005
 20
5.849999999999999
  0
LWPOLYLINE
  5
1CB
330
36
100
AcDbEntity
  8
PASTEMASK_TOP
100
AcDbPolyline
 90
        4
 70
     1
 43
0.0
 10
1.50005
 20
5.15
 10
-1.00005
 20
5.15
 10
-1.00005
 20
5.849999999999999
 10
1.50005
 20
5.849999999999999
  0
TEXT
  5
1D1
330
36
100
AcDbEntity
  8
PIN_NUMBER
100
AcDbText
 10
-0.1633332
 20
5.5
 30
0.0
 40
0.3
  1
14
 41
1.033333
 72
     2
 11
0.25
 21
5.5
 31
0.0
100
AcDbText
  0
LWPOLYLINE
  5
1D2
330
36
100
AcDbEntity
  8
TOP
100
AcDbPolyline
 90
        4
 70
     1
 43
0.0
 10
1.50005
 20
4.049999999999999
 10
-1.00005
 20
4.049999999999999
 10
-1.00005
 20
4.75
 10
1.50005
 20
4.75
  0
LWPOLYLINE
  5
1DE
330
36
100
AcDbEntity
  8
PASTEMASK_TOP
100
AcDbPolyline
 90
        4
 70
     1
 43
0.0
 10
1.50005
 20
4.049999999999999
 10
-1.00005
 20
4.049999999999999
 10
-1.00005
 20
4.75
 10
1.50005
 20
4.75
  0
TEXT
  5
1E4
330
36
100
AcDbEntity
  8
PIN_NUMBER
100
AcDbText
 10
-0.1633331999999999
 20
4.4
 30
0.0
 40
0.3
  1
15
 41
1.033333
 72
     2
 11
0.25
 21
4.4
 31
0.0
100
AcDbText
  0
LWPOLYLINE
  5
1E5
330
36
100
AcDbEntity
  8
TOP
100
AcDbPolyline
 90
        4
 70
     1
 43
0.0
 10
1.50005
 20
2.95
 10
-1.00005
 20
2.95
 10
-1.00005
 20
3.649999999999999
 10
1.50005
 20
3.649999999999999
  0
LWPOLYLINE
  5
1F1
330
36
100
AcDbEntity
  8
PASTEMASK_TOP
100
AcDbPolyline
 90
        4
 70
     1
 43
0.0
 10
1.50005
 20
2.95
 10
-1.00005
 20
2.95
 10
-1.00005
 20
3.649999999999999
 10
1.50005
 20
3.649999999999999
  0
TEXT
  5
1F7
330
36
100
AcDbEntity
  8
PIN_NUMBER
100
AcDbText
 10
-0.1633332
 20
3.299999999999999
 30
0.0
 40
0.3
  1
16
 41
1.033333
 72
     2
 11
0.25
 21
3.299999999999999
 31
0.0
100
AcDbText
  0
LWPOLYLINE
  5
1F8
330
36
100
AcDbEntity
  8
TOP
100
AcDbPolyline
 90
        4
 70
     1
 43
0.0
 10
20.90005
 20
2.95
 10
18.39995
 20
2.95
 10
18.39995
 20
3.649999999999999
 10
20.90005
 20
3.649999999999999
  0
LWPOLYLINE
  5
204
330
36
100
AcDbEntity
  8
PASTEMASK_TOP
100
AcDbPolyline
 90
        4
 70
     1
 43
0.0
 10
20.90005
 20
2.95
 10
18.39995
 20
2.95
 10
18.39995
 20
3.649999999999999
 10
20.90005
 20
3.649999999999999
  0
TEXT
  5
20A
330
36
100
AcDbEntity
  8
PIN_NUMBER
100
AcDbText
 10
19.1333335
 20
3.299999999999999
 30
0.0
 40
0.3
  1
28
 41
1.033333
 72
     2
 11
19.65
 21
3.299999999999999
 31
0.0
100
AcDbText
  0
LWPOLYLINE
  5
20B
330
36
100
AcDbEntity
  8
TOP
100
AcDbPolyline
 90
        4
 70
     1
 43
0.0
 10
20.90005
 20
4.049999999999999
 10
18.39995
 20
4.049999999999999
 10
18.39995
 20
4.75
 10
20.90005
 20
4.75
  0
LWPOLYLINE
  5
217
330
36
100
AcDbEntity
  8
PASTEMASK_TOP
100
AcDbPolyline
 90
        4
 70
     1
 43
0.0
 10
20.90005
 20
4.049999999999999
 10
18.39995
 20
4.049999999999999
 10
18.39995
 20
4.75
 10
20.90005
 20
4.75
  0
TEXT
  5
21D
330
36
100
AcDbEntity
  8
PIN_NUMBER
100
AcDbText
 10
19.1333335
 20
4.4
 30
0.0
 40
0.3
  1
29
 41
1.033333
 72
     2
 11
19.65
 21
4.4
 31
0.0
100
AcDbText
  0
LWPOLYLINE
  5
21E
330
36
100
AcDbEntity
  8
TOP
100
AcDbPolyline
 90
        4
 70
     1
 43
0.0
 10
20.90005
 20
5.15
 10
18.39995
 20
5.15
 10
18.39995
 20
5.849999999999999
 10
20.90005
 20
5.849999999999999
  0
LWPOLYLINE
  5
22A
330
36
100
AcDbEntity
  8
PASTEMASK_TOP
100
AcDbPolyline
 90
        4
 70
     1
 43
0.0
 10
20.90005
 20
5.15
 10
18.39995
 20
5.15
 10
18.39995
 20
5.849999999999999
 10
20.90005
 20
5.849999999999999
  0
TEXT
  5
230
330
36
100
AcDbEntity
  8
PIN_NUMBER
100
AcDbText
 10
19.18500015
 20
5.5
 30
0.0
 40
0.3
  1
30
 41
1.033333
 72
     2
 11
19.65
 21
5.5
 31
0.0
100
AcDbText
  0
LWPOLYLINE
  5
231
330
36
100
AcDbEntity
  8
TOP
100
AcDbPolyline
 90
        4
 70
     1
 43
0.0
 10
20.90005
 20
6.25
 10
18.39995
 20
6.25
 10
18.39995
 20
6.95
 10
20.90005
 20
6.95
  0
LWPOLYLINE
  5
23D
330
36
100
AcDbEntity
  8
PASTEMASK_TOP
100
AcDbPolyline
 90
        4
 70
     1
 43
0.0
 10
20.90005
 20
6.25
 10
18.39995
 20
6.25
 10
18.39995
 20
6.95
 10
20.90005
 20
6.95
  0
TEXT
  5
243
330
36
100
AcDbEntity
  8
PIN_NUMBER
100
AcDbText
 10
19.2366668
 20
6.599999999999999
 30
0.0
 40
0.3
  1
31
 41
1.033333
 72
     2
 11
19.65
 21
6.599999999999999
 31
0.0
100
AcDbText
  0
LWPOLYLINE
  5
244
330
36
100
AcDbEntity
  8
TOP
100
AcDbPolyline
 90
        4
 70
     1
 43
0.0
 10
20.90005
 20
7.349999999999999
 10
18.39995
 20
7.349999999999999
 10
18.39995
 20
8.05
 10
20.90005
 20
8.05
  0
LWPOLYLINE
  5
250
330
36
100
AcDbEntity
  8
PASTEMASK_TOP
100
AcDbPolyline
 90
        4
 70
     1
 43
0.0
 10
20.90005
 20
7.349999999999999
 10
18.39995
 20
7.349999999999999
 10
18.39995
 20
8.05
 10
20.90005
 20
8.05
  0
TEXT
  5
256
330
36
100
AcDbEntity
  8
PIN_NUMBER
100
AcDbText
 10
19.1333335
 20
7.7
 30
0.0
 40
0.3
  1
32
 41
1.033333
 72
     2
 11
19.65
 21
7.7
 31
0.0
100
AcDbText
  0
LWPOLYLINE
  5
257
330
36
100
AcDbEntity
  8
TOP
100
AcDbPolyline
 90
        4
 70
     1
 43
0.0
 10
20.90005
 20
8.449999999999999
 10
18.39995
 20
8.449999999999999
 10
18.39995
 20
9.15
 10
20.90005
 20
9.15
  0
LWPOLYLINE
  5
263
330
36
100
AcDbEntity
  8
PASTEMASK_TOP
100
AcDbPolyline
 90
        4
 70
     1
 43
0.0
 10
20.90005
 20
8.449999999999999
 10
18.39995
 20
8.449999999999999
 10
18.39995
 20
9.15
 10
20.90005
 20
9.15
  0
TEXT
  5
269
330
36
100
AcDbEntity
  8
PIN_NUMBER
100
AcDbText
 10
19.1333335
 20
8.8
 30
0.0
 40
0.3
  1
33
 41
1.033333
 72
     2
 11
19.65
 21
8.8
 31
0.0
100
AcDbText
  0
LWPOLYLINE
  5
26A
330
36
100
AcDbEntity
  8
TOP
100
AcDbPolyline
 90
        4
 70
     1
 43
0.0
 10
20.90005
 20
9.55
 10
18.39995
 20
9.55
 10
18.39995
 20
10.25
 10
20.90005
 20
10.25
  0
LWPOLYLINE
  5
276
330
36
100
AcDbEntity
  8
PASTEMASK_TOP
100
AcDbPolyline
 90
        4
 70
     1
 43
0.0
 10
20.90005
 20
9.55
 10
18.39995
 20
9.55
 10
18.39995
 20
10.25
 10
20.90005
 20
10.25
  0
TEXT
  5
27C
330
36
100
AcDbEntity
  8
PIN_NUMBER
100
AcDbText
 10
19.1333335
 20
9.9
 30
0.0
 40
0.3
  1
34
 41
1.033333
 72
     2
 11
19.65
 21
9.9
 31
0.0
100
AcDbText
  0
LWPOLYLINE
  5
27D
330
36
100
AcDbEntity
  8
TOP
100
AcDbPolyline
 90
        4
 70
     1
 43
0.0
 10
20.90005
 20
11.25
 10
18.39995
 20
11.25
 10
18.39995
 20
11.95
 10
20.90005
 20
11.95
  0
LWPOLYLINE
  5
289
330
36
100
AcDbEntity
  8
PASTEMASK_TOP
100
AcDbPolyline
 90
        4
 70
     1
 43
0.0
 10
20.90005
 20
11.25
 10
18.39995
 20
11.25
 10
18.39995
 20
11.95
 10
20.90005
 20
11.95
  0
TEXT
  5
28F
330
36
100
AcDbEntity
  8
PIN_NUMBER
100
AcDbText
 10
19.1333335
 20
11.6
 30
0.0
 40
0.3
  1
35
 41
1.033333
 72
     2
 11
19.65
 21
11.6
 31
0.0
100
AcDbText
  0
LWPOLYLINE
  5
290
330
36
100
AcDbEntity
  8
TOP
100
AcDbPolyline
 90
        4
 70
     1
 43
0.0
 10
20.90005
 20
12.35
 10
18.39995
 20
12.35
 10
18.39995
 20
13.05
 10
20.90005
 20
13.05
  0
LWPOLYLINE
  5
29C
330
36
100
AcDbEntity
  8
PASTEMASK_TOP
100
AcDbPolyline
 90
        4
 70
     1
 43
0.0
 10
20.90005
 20
12.35
 10
18.39995
 20
12.35
 10
18.39995
 20
13.05
 10
20.90005
 20
13.05
  0
TEXT
  5
2A2
330
36
100
AcDbEntity
  8
PIN_NUMBER
100
AcDbText
 10
19.1333335
 20
12.7
 30
0.0
 40
0.3
  1
36
 41
1.033333
 72
     2
 11
19.65
 21
12.7
 31
0.0
100
AcDbText
  0
LWPOLYLINE
  5
2A3
330
36
100
AcDbEntity
  8
TOP
100
AcDbPolyline
 90
        4
 70
     1
 43
0.0
 10
20.90005
 20
13.45
 10
18.39995
 20
13.45
 10
18.39995
 20
14.15
 10
20.90005
 20
14.15
  0
LWPOLYLINE
  5
2AF
330
36
100
AcDbEntity
  8
PASTEMASK_TOP
100
AcDbPolyline
 90
        4
 70
     1
 43
0.0
 10
20.90005
 20
13.45
 10
18.39995
 20
13.45
 10
18.39995
 20
14.15
 10
20.90005
 20
14.15
  0
TEXT
  5
2B5
330
36
100
AcDbEntity
  8
PIN_NUMBER
100
AcDbText
 10
19.1333335
 20
13.8
 30
0.0
 40
0.3
  1
37
 41
1.033333
 72
     2
 11
19.65
 21
13.8
 31
0.0
100
AcDbText
  0
LWPOLYLINE
  5
2B6
330
36
100
AcDbEntity
  8
TOP
100
AcDbPolyline
 90
        4
 70
     1
 43
0.0
 10
20.90005
 20
14.55
 10
18.39995
 20
14.55
 10
18.39995
 20
15.25
 10
20.90005
 20
15.25
  0
LWPOLYLINE
  5
2C2
330
36
100
AcDbEntity
  8
PASTEMASK_TOP
100
AcDbPolyline
 90
        4
 70
     1
 43
0.0
 10
20.90005
 20
14.55
 10
18.39995
 20
14.55
 10
18.39995
 20
15.25
 10
20.90005
 20
15.25
  0
TEXT
  5
2C8
330
36
100
AcDbEntity
  8
PIN_NUMBER
100
AcDbText
 10
19.1333335
 20
14.9
 30
0.0
 40
0.3
  1
38
 41
1.033333
 72
     2
 11
19.65
 21
14.9
 31
0.0
100
AcDbText
  0
LWPOLYLINE
  5
2C9
330
36
100
AcDbEntity
  8
TOP
100
AcDbPolyline
 90
        4
 70
     1
 43
0.0
 10
20.90005
 20
15.65
 10
18.39995
 20
15.65
 10
18.39995
 20
16.35
 10
20.90005
 20
16.35
  0
LWPOLYLINE
  5
2D5
330
36
100
AcDbEntity
  8
PASTEMASK_TOP
100
AcDbPolyline
 90
        4
 70
     1
 43
0.0
 10
20.90005
 20
15.65
 10
18.39995
 20
15.65
 10
18.39995
 20
16.35
 10
20.90005
 20
16.35
  0
TEXT
  5
2DB
330
36
100
AcDbEntity
  8
PIN_NUMBER
100
AcDbText
 10
19.1333335
 20
16.0
 30
0.0
 40
0.3
  1
39
 41
1.033333
 72
     2
 11
19.65
 21
16.0
 31
0.0
100
AcDbText
  0
LWPOLYLINE
  5
2DC
330
36
100
AcDbEntity
  8
TOP
100
AcDbPolyline
 90
        4
 70
     1
 43
0.0
 10
20.90005
 20
16.75
 10
18.39995
 20
16.75
 10
18.39995
 20
17.45
 10
20.90005
 20
17.45
  0
LWPOLYLINE
  5
2E8
330
36
100
AcDbEntity
  8
PASTEMASK_TOP
100
AcDbPolyline
 90
        4
 70
     1
 43
0.0
 10
20.90005
 20
16.75
 10
18.39995
 20
16.75
 10
18.39995
 20
17.45
 10
20.90005
 20
17.45
  0
TEXT
  5
2EE
330
36
100
AcDbEntity
  8
PIN_NUMBER
100
AcDbText
 10
19.18500015
 20
17.1
 30
0.0
 40
0.3
  1
40
 41
1.033333
 72
     2
 11
19.65
 21
17.1
 31
0.0
100
AcDbText
  0
LWPOLYLINE
  5
2EF
330
36
100
AcDbEntity
  8
TOP
100
AcDbPolyline
 90
        4
 70
     1
 43
0.0
 10
20.90005
 20
17.85
 10
18.39995
 20
17.85
 10
18.39995
 20
18.55
 10
20.90005
 20
18.55
  0
LWPOLYLINE
  5
2FB
330
36
100
AcDbEntity
  8
PASTEMASK_TOP
100
AcDbPolyline
 90
        4
 70
     1
 43
0.0
 10
20.90005
 20
17.85
 10
18.39995
 20
17.85
 10
18.39995
 20
18.55
 10
20.90005
 20
18.55
  0
TEXT
  5
301
330
36
100
AcDbEntity
  8
PIN_NUMBER
100
AcDbText
 10
19.2366668
 20
18.2
 30
0.0
 40
0.3
  1
41
 41
1.033333
 72
     2
 11
19.65
 21
18.2
 31
0.0
100
AcDbText
  0
LWPOLYLINE
  5
302
330
36
100
AcDbEntity
  8
TOP
100
AcDbPolyline
 90
        4
 70
     1
 43
0.0
 10
20.90005
 20
18.95
 10
18.39995
 20
18.95
 10
18.39995
 20
19.65
 10
20.90005
 20
19.65
  0
LWPOLYLINE
  5
30E
330
36
100
AcDbEntity
  8
PASTEMASK_TOP
100
AcDbPolyline
 90
        4
 70
     1
 43
0.0
 10
20.90005
 20
18.95
 10
18.39995
 20
18.95
 10
18.39995
 20
19.65
 10
20.90005
 20
19.65
  0
TEXT
  5
314
330
36
100
AcDbEntity
  8
PIN_NUMBER
100
AcDbText
 10
19.1333335
 20
19.3
 30
0.0
 40
0.3
  1
42
 41
1.033333
 72
     2
 11
19.65
 21
19.3
 31
0.0
100
AcDbText
  0
LWPOLYLINE
  5
315
330
36
100
AcDbEntity
  8
TOP
100
AcDbPolyline
 90
        4
 70
     1
 43
0.0
 10
20.90005
 20
20.05
 10
18.39995
 20
20.05
 10
18.39995
 20
20.75
 10
20.90005
 20
20.75
  0
LWPOLYLINE
  5
321
330
36
100
AcDbEntity
  8
PASTEMASK_TOP
100
AcDbPolyline
 90
        4
 70
     1
 43
0.0
 10
20.90005
 20
20.05
 10
18.39995
 20
20.05
 10
18.39995
 20
20.75
 10
20.90005
 20
20.75
  0
TEXT
  5
327
330
36
100
AcDbEntity
  8
PIN_NUMBER
100
AcDbText
 10
19.1333335
 20
20.4
 30
0.0
 40
0.3
  1
43
 41
1.033333
 72
     2
 11
19.65
 21
20.4
 31
0.0
100
AcDbText
  0
LWPOLYLINE
  5
328
330
36
100
AcDbEntity
  8
TOP
100
AcDbPolyline
 90
        4
 70
     1
 43
0.0
 10
3.5
 20
15.55
 10
3.5
 20
16.55
 10
4.5
 20
16.55
 10
4.5
 20
15.55
  0
LWPOLYLINE
  5
334
330
36
100
AcDbEntity
  8
PASTEMASK_TOP
100
AcDbPolyline
 90
        4
 70
     1
 43
0.0
 10
3.5
 20
15.55
 10
3.5
 20
16.55
 10
4.5
 20
16.55
 10
4.5
 20
15.55
  0
TEXT
  5
33A
330
36
100
AcDbEntity
  8
PIN_NUMBER
100
AcDbText
 10
3.741666749999999
 20
16.05
 30
0.0
 40
0.3
  1
55
 41
1.033333
 72
     1
 11
4.0
 21
16.05
 31
0.0
100
AcDbText
  0
LWPOLYLINE
  5
33B
330
36
100
AcDbEntity
  8
TOP
100
AcDbPolyline
 90
        4
 70
     1
 43
0.0
 10
3.5
 20
13.85
 10
3.5
 20
14.85
 10
4.5
 20
14.85
 10
4.5
 20
13.85
  0
LWPOLYLINE
  5
347
330
36
100
AcDbEntity
  8
PASTEMASK_TOP
100
AcDbPolyline
 90
        4
 70
     1
 43
0.0
 10
3.5
 20
13.85
 10
3.5
 20
14.85
 10
4.5
 20
14.85
 10
4.5
 20
13.85
  0
TEXT
  5
34D
330
36
100
AcDbEntity
  8
PIN_NUMBER
100
AcDbText
 10
3.741666749999999
 20
14.35
 30
0.0
 40
0.3
  1
56
 41
1.033333
 72
     1
 11
4.0
 21
14.35
 31
0.0
100
AcDbText
  0
LWPOLYLINE
  5
34E
330
36
100
AcDbEntity
  8
TOP
100
AcDbPolyline
 90
        4
 70
     1
 43
0.0
 10
3.5
 20
12.15
 10
3.5
 20
13.15
 10
4.5
 20
13.15
 10
4.5
 20
12.15
  0
LWPOLYLINE
  5
35A
330
36
100
AcDbEntity
  8
PASTEMASK_TOP
100
AcDbPolyline
 90
        4
 70
     1
 43
0.0
 10
3.5
 20
12.15
 10
3.5
 20
13.15
 10
4.5
 20
13.15
 10
4.5
 20
12.15
  0
TEXT
  5
360
330
36
100
AcDbEntity
  8
PIN_NUMBER
100
AcDbText
 10
3.74166675
 20
12.65
 30
0.0
 40
0.3
  1
57
 41
1.033333
 72
     1
 11
4.0
 21
12.65
 31
0.0
100
AcDbText
  0
LWPOLYLINE
  5
361
330
36
100
AcDbEntity
  8
TOP
100
AcDbPolyline
 90
        4
 70
     1
 43
0.0
 10
3.5
 20
10.45
 10
3.5
 20
11.45
 10
4.5
 20
11.45
 10
4.5
 20
10.45
  0
LWPOLYLINE
  5
36D
330
36
100
AcDbEntity
  8
PASTEMASK_TOP
100
AcDbPolyline
 90
        4
 70
     1
 43
0.0
 10
3.5
 20
10.45
 10
3.5
 20
11.45
 10
4.5
 20
11.45
 10
4.5
 20
10.45
  0
TEXT
  5
373
330
36
100
AcDbEntity
  8
PIN_NUMBER
100
AcDbText
 10
3.741666749999999
 20
10.95
 30
0.0
 40
0.3
  1
58
 41
1.033333
 72
     1
 11
4.0
 21
10.95
 31
0.0
100
AcDbText
  0
LWPOLYLINE
  5
374
330
36
100
AcDbEntity
  8
TOP
100
AcDbPolyline
 90
        4
 70
     1
 43
0.0
 10
3.5
 20
8.75
 10
3.5
 20
9.75
 10
4.5
 20
9.75
 10
4.5
 20
8.75
  0
LWPOLYLINE
  5
380
330
36
100
AcDbEntity
  8
PASTEMASK_TOP
100
AcDbPolyline
 90
        4
 70
     1
 43
0.0
 10
3.5
 20
8.75
 10
3.5
 20
9.75
 10
4.5
 20
9.75
 10
4.5
 20
8.75
  0
TEXT
  5
386
330
36
100
AcDbEntity
  8
PIN_NUMBER
100
AcDbText
 10
3.74166675
 20
9.25
 30
0.0
 40
0.3
  1
59
 41
1.033333
 72
     1
 11
4.0
 21
9.25
 31
0.0
100
AcDbText
  0
LWPOLYLINE
  5
387
330
36
100
AcDbEntity
  8
TOP
100
AcDbPolyline
 90
        4
 70
     1
 43
0.0
 10
3.5
 20
7.049999999999999
 10
3.5
 20
8.05
 10
4.5
 20
8.05
 10
4.5
 20
7.049999999999999
  0
LWPOLYLINE
  5
393
330
36
100
AcDbEntity
  8
PASTEMASK_TOP
100
AcDbPolyline
 90
        4
 70
     1
 43
0.0
 10
3.5
 20
7.049999999999999
 10
3.5
 20
8.05
 10
4.5
 20
8.05
 10
4.5
 20
7.049999999999999
  0
TEXT
  5
399
330
36
100
AcDbEntity
  8
PIN_NUMBER
100
AcDbText
 10
3.767500075
 20
7.549999999999999
 30
0.0
 40
0.3
  1
60
 41
1.033333
 72
     1
 11
4.0
 21
7.549999999999999
 31
0.0
100
AcDbText
  0
LWPOLYLINE
  5
39A
330
36
100
AcDbEntity
  8
TOP
100
AcDbPolyline
 90
        4
 70
     1
 43
0.0
 10
7.9
 20
4.65
 10
7.9
 20
3.649999999999999
 10
6.9
 20
3.649999999999999
 10
6.9
 20
4.65
  0
LWPOLYLINE
  5
3A6
330
36
100
AcDbEntity
  8
PASTEMASK_TOP
100
AcDbPolyline
 90
        4
 70
     1
 43
0.0
 10
7.9
 20
4.65
 10
7.9
 20
3.649999999999999
 10
6.9
 20
3.649999999999999
 10
6.9
 20
4.65
  0
TEXT
  5
3AC
330
36
100
AcDbEntity
  8
PIN_NUMBER
100
AcDbText
 10
7.1933334
 20
4.15
 30
0.0
 40
0.3
  1
61
 41
1.033333
 72
     1
 11
7.4
 21
4.15
 31
0.0
100
AcDbText
  0
LWPOLYLINE
  5
3AD
330
36
100
AcDbEntity
  8
TOP
100
AcDbPolyline
 90
        4
 70
     1
 43
0.0
 10
9.599999999999999
 20
4.65
 10
9.599999999999999
 20
3.649999999999999
 10
8.599999999999999
 20
3.649999999999999
 10
8.599999999999999
 20
4.65
  0
LWPOLYLINE
  5
3B9
330
36
100
AcDbEntity
  8
PASTEMASK_TOP
100
AcDbPolyline
 90
        4
 70
     1
 43
0.0
 10
9.599999999999999
 20
4.65
 10
9.599999999999999
 20
3.649999999999999
 10
8.599999999999999
 20
3.649999999999999
 10
8.599999999999999
 20
4.65
  0
TEXT
  5
3BF
330
36
100
AcDbEntity
  8
PIN_NUMBER
100
AcDbText
 10
8.841666749999999
 20
4.15
 30
0.0
 40
0.3
  1
62
 41
1.033333
 72
     1
 11
9.099999999999999
 21
4.15
 31
0.0
100
AcDbText
  0
LWPOLYLINE
  5
3C0
330
36
100
AcDbEntity
  8
TOP
100
AcDbPolyline
 90
        4
 70
     1
 43
0.0
 10
11.3
 20
4.65
 10
11.3
 20
3.649999999999999
 10
10.3
 20
3.649999999999999
 10
10.3
 20
4.65
  0
LWPOLYLINE
  5
3CC
330
36
100
AcDbEntity
  8
PASTEMASK_TOP
100
AcDbPolyline
 90
        4
 70
     1
 43
0.0
 10
11.3
 20
4.65
 10
11.3
 20
3.649999999999999
 10
10.3
 20
3.649999999999999
 10
10.3
 20
4.65
  0
TEXT
  5
3D2
330
36
100
AcDbEntity
  8
PIN_NUMBER
100
AcDbText
 10
10.54166675
 20
4.15
 30
0.0
 40
0.3
  1
63
 41
1.033333
 72
     1
 11
10.8
 21
4.15
 31
0.0
100
AcDbText
  0
LWPOLYLINE
  5
3D3
330
36
100
AcDbEntity
  8
TOP
100
AcDbPolyline
 90
        4
 70
     1
 43
0.0
 10
13.0
 20
4.65
 10
13.0
 20
3.649999999999999
 10
12.0
 20
3.649999999999999
 10
12.0
 20
4.65
  0
LWPOLYLINE
  5
3DF
330
36
100
AcDbEntity
  8
PASTEMASK_TOP
100
AcDbPolyline
 90
        4
 70
     1
 43
0.0
 10
13.0
 20
4.65
 10
13.0
 20
3.649999999999999
 10
12.0
 20
3.649999999999999
 10
12.0
 20
4.65
  0
TEXT
  5
3E5
330
36
100
AcDbEntity
  8
PIN_NUMBER
100
AcDbText
 10
12.24166675
 20
4.15
 30
0.0
 40
0.3
  1
64
 41
1.033333
 72
     1
 11
12.5
 21
4.15
 31
0.0
100
AcDbText
  0
LWPOLYLINE
  5
3E6
330
36
100
AcDbEntity
  8
TOP
100
AcDbPolyline
 90
        4
 70
     1
 43
0.0
 10
15.4
 20
7.049999999999999
 10
15.4
 20
8.05
 10
16.4
 20
8.05
 10
16.4
 20
7.049999999999999
  0
LWPOLYLINE
  5
3F2
330
36
100
AcDbEntity
  8
PASTEMASK_TOP
100
AcDbPolyline
 90
        4
 70
     1
 43
0.0
 10
15.4
 20
7.049999999999999
 10
15.4
 20
8.05
 10
16.4
 20
8.05
 10
16.4
 20
7.049999999999999
  0
TEXT
  5
3F8
330
36
100
AcDbEntity
  8
PIN_NUMBER
100
AcDbText
 10
15.64166675
 20
7.549999999999999
 30
0.0
 40
0.3
  1
65
 41
1.033333
 72
     1
 11
15.9
 21
7.549999999999999
 31
0.0
100
AcDbText
  0
LWPOLYLINE
  5
3F9
330
36
100
AcDbEntity
  8
TOP
100
AcDbPolyline
 90
        4
 70
     1
 43
0.0
 10
15.4
 20
8.75
 10
15.4
 20
9.75
 10
16.4
 20
9.75
 10
16.4
 20
8.75
  0
LWPOLYLINE
  5
405
330
36
100
AcDbEntity
  8
PASTEMASK_TOP
100
AcDbPolyline
 90
        4
 70
     1
 43
0.0
 10
15.4
 20
8.75
 10
15.4
 20
9.75
 10
16.4
 20
9.75
 10
16.4
 20
8.75
  0
TEXT
  5
40B
330
36
100
AcDbEntity
  8
PIN_NUMBER
100
AcDbText
 10
15.64166675
 20
9.25
 30
0.0
 40
0.3
  1
66
 41
1.033333
 72
     1
 11
15.9
 21
9.25
 31
0.0
100
AcDbText
  0
LWPOLYLINE
  5
40C
330
36
100
AcDbEntity
  8
TOP
100
AcDbPolyline
 90
        4
 70
     1
 43
0.0
 10
15.4
 20
10.45
 10
15.4
 20
11.45
 10
16.4
 20
11.45
 10
16.4
 20
10.45
  0
LWPOLYLINE
  5
418
330
36
100
AcDbEntity
  8
PASTEMASK_TOP
100
AcDbPolyline
 90
        4
 70
     1
 43
0.0
 10
15.4
 20
10.45
 10
15.4
 20
11.45
 10
16.4
 20
11.45
 10
16.4
 20
10.45
  0
TEXT
  5
41E
330
36
100
AcDbEntity
  8
PIN_NUMBER
100
AcDbText
 10
15.64166675
 20
10.95
 30
0.0
 40
0.3
  1
67
 41
1.033333
 72
     1
 11
15.9
 21
10.95
 31
0.0
100
AcDbText
  0
LWPOLYLINE
  5
41F
330
36
100
AcDbEntity
  8
TOP
100
AcDbPolyline
 90
        4
 70
     1
 43
0.0
 10
15.4
 20
12.15
 10
15.4
 20
13.15
 10
16.4
 20
13.15
 10
16.4
 20
12.15
  0
LWPOLYLINE
  5
42B
330
36
100
AcDbEntity
  8
PASTEMASK_TOP
100
AcDbPolyline
 90
        4
 70
     1
 43
0.0
 10
15.4
 20
12.15
 10
15.4
 20
13.15
 10
16.4
 20
13.15
 10
16.4
 20
12.15
  0
TEXT
  5
431
330
36
100
AcDbEntity
  8
PIN_NUMBER
100
AcDbText
 10
15.64166675
 20
12.65
 30
0.0
 40
0.3
  1
68
 41
1.033333
 72
     1
 11
15.9
 21
12.65
 31
0.0
100
AcDbText
  0
LWPOLYLINE
  5
432
330
36
100
AcDbEntity
  8
TOP
100
AcDbPolyline
 90
        4
 70
     1
 43
0.0
 10
15.4
 20
13.85
 10
15.4
 20
14.85
 10
16.4
 20
14.85
 10
16.4
 20
13.85
  0
LWPOLYLINE
  5
43E
330
36
100
AcDbEntity
  8
PASTEMASK_TOP
100
AcDbPolyline
 90
        4
 70
     1
 43
0.0
 10
15.4
 20
13.85
 10
15.4
 20
14.85
 10
16.4
 20
14.85
 10
16.4
 20
13.85
  0
TEXT
  5
444
330
36
100
AcDbEntity
  8
PIN_NUMBER
100
AcDbText
 10
15.64166675
 20
14.35
 30
0.0
 40
0.3
  1
69
 41
1.033333
 72
     1
 11
15.9
 21
14.35
 31
0.0
100
AcDbText
  0
LWPOLYLINE
  5
445
330
36
100
AcDbEntity
  8
TOP
100
AcDbPolyline
 90
        4
 70
     1
 43
0.0
 10
15.4
 20
15.55
 10
15.4
 20
16.55
 10
16.4
 20
16.55
 10
16.4
 20
15.55
  0
LWPOLYLINE
  5
451
330
36
100
AcDbEntity
  8
PASTEMASK_TOP
100
AcDbPolyline
 90
        4
 70
     1
 43
0.0
 10
15.4
 20
15.55
 10
15.4
 20
16.55
 10
16.4
 20
16.55
 10
16.4
 20
15.55
  0
TEXT
  5
457
330
36
100
AcDbEntity
  8
PIN_NUMBER
100
AcDbText
 10
15.667500075
 20
16.05
 30
0.0
 40
0.3
  1
70
 41
1.033333
 72
     1
 11
15.9
 21
16.05
 31
0.0
100
AcDbText
  0
LWPOLYLINE
  5
458
330
36
100
AcDbEntity
  8
TOP
100
AcDbPolyline
 90
        4
 70
     1
 43
0.0
 10
13.0
 20
19.95
 10
13.0
 20
18.95
 10
12.0
 20
18.95
 10
12.0
 20
19.95
  0
LWPOLYLINE
  5
464
330
36
100
AcDbEntity
  8
PASTEMASK_TOP
100
AcDbPolyline
 90
        4
 70
     1
 43
0.0
 10
13.0
 20
19.95
 10
13.0
 20
18.95
 10
12.0
 20
18.95
 10
12.0
 20
19.95
  0
TEXT
  5
46A
330
36
100
AcDbEntity
  8
PIN_NUMBER
100
AcDbText
 10
12.2933334
 20
19.45
 30
0.0
 40
0.3
  1
71
 41
1.033333
 72
     1
 11
12.5
 21
19.45
 31
0.0
100
AcDbText
  0
LWPOLYLINE
  5
46B
330
36
100
AcDbEntity
  8
TOP
100
AcDbPolyline
 90
        4
 70
     1
 43
0.0
 10
11.3
 20
19.95
 10
11.3
 20
18.95
 10
10.3
 20
18.95
 10
10.3
 20
19.95
  0
LWPOLYLINE
  5
477
330
36
100
AcDbEntity
  8
PASTEMASK_TOP
100
AcDbPolyline
 90
        4
 70
     1
 43
0.0
 10
11.3
 20
19.95
 10
11.3
 20
18.95
 10
10.3
 20
18.95
 10
10.3
 20
19.95
  0
TEXT
  5
47D
330
36
100
AcDbEntity
  8
PIN_NUMBER
100
AcDbText
 10
10.54166675
 20
19.45
 30
0.0
 40
0.3
  1
72
 41
1.033333
 72
     1
 11
10.8
 21
19.45
 31
0.0
100
AcDbText
  0
LWPOLYLINE
  5
47E
330
36
100
AcDbEntity
  8
TOP
100
AcDbPolyline
 90
        4
 70
     1
 43
0.0
 10
9.599999999999999
 20
19.95
 10
9.599999999999999
 20
18.95
 10
8.599999999999999
 20
18.95
 10
8.599999999999999
 20
19.95
  0
LWPOLYLINE
  5
48A
330
36
100
AcDbEntity
  8
PASTEMASK_TOP
100
AcDbPolyline
 90
        4
 70
     1
 43
0.0
 10
9.599999999999999
 20
19.95
 10
9.599999999999999
 20
18.95
 10
8.599999999999999
 20
18.95
 10
8.599999999999999
 20
19.95
  0
TEXT
  5
490
330
36
100
AcDbEntity
  8
PIN_NUMBER
100
AcDbText
 10
8.841666749999999
 20
19.45
 30
0.0
 40
0.3
  1
73
 41
1.033333
 72
     1
 11
9.099999999999999
 21
19.45
 31
0.0
100
AcDbText
  0
LWPOLYLINE
  5
491
330
36
100
AcDbEntity
  8
TOP
100
AcDbPolyline
 90
        4
 70
     1
 43
0.0
 10
7.9
 20
19.95
 10
7.9
 20
18.95
 10
6.9
 20
18.95
 10
6.9
 20
19.95
  0
LWPOLYLINE
  5
49D
330
36
100
AcDbEntity
  8
PASTEMASK_TOP
100
AcDbPolyline
 90
        4
 70
     1
 43
0.0
 10
7.9
 20
19.95
 10
7.9
 20
18.95
 10
6.9
 20
18.95
 10
6.9
 20
19.95
  0
TEXT
  5
4A3
330
36
100
AcDbEntity
  8
PIN_NUMBER
100
AcDbText
 10
7.14166675
 20
19.45
 30
0.0
 40
0.3
  1
74
 41
1.033333
 72
     1
 11
7.4
 21
19.45
 31
0.0
100
AcDbText
  0
LWPOLYLINE
  5
4A4
330
36
100
AcDbEntity
  8
TOP
100
AcDbPolyline
 90
        4
 70
     1
 43
0.0
 10
5.2
 20
15.55
 10
5.2
 20
16.55
 10
6.2
 20
16.55
 10
6.2
 20
15.55
  0
LWPOLYLINE
  5
4B0
330
36
100
AcDbEntity
  8
PASTEMASK_TOP
100
AcDbPolyline
 90
        4
 70
     1
 43
0.0
 10
5.2
 20
15.55
 10
5.2
 20
16.55
 10
6.2
 20
16.55
 10
6.2
 20
15.55
  0
TEXT
  5
4B6
330
36
100
AcDbEntity
  8
PIN_NUMBER
100
AcDbText
 10
5.44166675
 20
16.05
 30
0.0
 40
0.3
  1
75
 41
1.033333
 72
     1
 11
5.7
 21
16.05
 31
0.0
100
AcDbText
  0
LWPOLYLINE
  5
4B7
330
36
100
AcDbEntity
  8
TOP
100
AcDbPolyline
 90
        4
 70
     1
 43
0.0
 10
5.2
 20
13.85
 10
5.2
 20
14.85
 10
6.2
 20
14.85
 10
6.2
 20
13.85
  0
LWPOLYLINE
  5
4C3
330
36
100
AcDbEntity
  8
PASTEMASK_TOP
100
AcDbPolyline
 90
        4
 70
     1
 43
0.0
 10
5.2
 20
13.85
 10
5.2
 20
14.85
 10
6.2
 20
14.85
 10
6.2
 20
13.85
  0
TEXT
  5
4C9
330
36
100
AcDbEntity
  8
PIN_NUMBER
100
AcDbText
 10
5.44166675
 20
14.35
 30
0.0
 40
0.3
  1
76
 41
1.033333
 72
     1
 11
5.7
 21
14.35
 31
0.0
100
AcDbText
  0
LWPOLYLINE
  5
4CA
330
36
100
AcDbEntity
  8
TOP
100
AcDbPolyline
 90
        4
 70
     1
 43
0.0
 10
5.2
 20
12.15
 10
5.2
 20
13.15
 10
6.2
 20
13.15
 10
6.2
 20
12.15
  0
LWPOLYLINE
  5
4D6
330
36
100
AcDbEntity
  8
PASTEMASK_TOP
100
AcDbPolyline
 90
        4
 70
     1
 43
0.0
 10
5.2
 20
12.15
 10
5.2
 20
13.15
 10
6.2
 20
13.15
 10
6.2
 20
12.15
  0
TEXT
  5
4DC
330
36
100
AcDbEntity
  8
PIN_NUMBER
100
AcDbText
 10
5.44166675
 20
12.65
 30
0.0
 40
0.3
  1
77
 41
1.033333
 72
     1
 11
5.7
 21
12.65
 31
0.0
100
AcDbText
  0
LWPOLYLINE
  5
4DD
330
36
100
AcDbEntity
  8
TOP
100
AcDbPolyline
 90
        4
 70
     1
 43
0.0
 10
5.2
 20
10.45
 10
5.2
 20
11.45
 10
6.2
 20
11.45
 10
6.2
 20
10.45
  0
LWPOLYLINE
  5
4E9
330
36
100
AcDbEntity
  8
PASTEMASK_TOP
100
AcDbPolyline
 90
        4
 70
     1
 43
0.0
 10
5.2
 20
10.45
 10
5.2
 20
11.45
 10
6.2
 20
11.45
 10
6.2
 20
10.45
  0
TEXT
  5
4EF
330
36
100
AcDbEntity
  8
PIN_NUMBER
100
AcDbText
 10
5.44166675
 20
10.95
 30
0.0
 40
0.3
  1
78
 41
1.033333
 72
     1
 11
5.7
 21
10.95
 31
0.0
100
AcDbText
  0
LWPOLYLINE
  5
4F0
330
36
100
AcDbEntity
  8
TOP
100
AcDbPolyline
 90
        4
 70
     1
 43
0.0
 10
5.2
 20
8.75
 10
5.2
 20
9.75
 10
6.2
 20
9.75
 10
6.2
 20
8.75
  0
LWPOLYLINE
  5
4FC
330
36
100
AcDbEntity
  8
PASTEMASK_TOP
100
AcDbPolyline
 90
        4
 70
     1
 43
0.0
 10
5.2
 20
8.75
 10
5.2
 20
9.75
 10
6.2
 20
9.75
 10
6.2
 20
8.75
  0
TEXT
  5
502
330
36
100
AcDbEntity
  8
PIN_NUMBER
100
AcDbText
 10
5.44166675
 20
9.25
 30
0.0
 40
0.3
  1
79
 41
1.033333
 72
     1
 11
5.7
 21
9.25
 31
0.0
100
AcDbText
  0
LWPOLYLINE
  5
503
330
36
100
AcDbEntity
  8
TOP
100
AcDbPolyline
 90
        4
 70
     1
 43
0.0
 10
5.2
 20
7.049999999999999
 10
5.2
 20
8.05
 10
6.2
 20
8.05
 10
6.2
 20
7.049999999999999
  0
LWPOLYLINE
  5
50F
330
36
100
AcDbEntity
  8
PASTEMASK_TOP
100
AcDbPolyline
 90
        4
 70
     1
 43
0.0
 10
5.2
 20
7.049999999999999
 10
5.2
 20
8.05
 10
6.2
 20
8.05
 10
6.2
 20
7.049999999999999
  0
TEXT
  5
515
330
36
100
AcDbEntity
  8
PIN_NUMBER
100
AcDbText
 10
5.467500075
 20
7.549999999999999
 30
0.0
 40
0.3
  1
80
 41
1.033333
 72
     1
 11
5.7
 21
7.549999999999999
 31
0.0
100
AcDbText
  0
LWPOLYLINE
  5
516
330
36
100
AcDbEntity
  8
TOP
100
AcDbPolyline
 90
        4
 70
     1
 43
0.0
 10
7.9
 20
6.349999999999999
 10
7.9
 20
5.349999999999999
 10
6.9
 20
5.349999999999999
 10
6.9
 20
6.349999999999999
  0
LWPOLYLINE
  5
522
330
36
100
AcDbEntity
  8
PASTEMASK_TOP
100
AcDbPolyline
 90
        4
 70
     1
 43
0.0
 10
7.9
 20
6.349999999999999
 10
7.9
 20
5.349999999999999
 10
6.9
 20
5.349999999999999
 10
6.9
 20
6.349999999999999
  0
TEXT
  5
528
330
36
100
AcDbEntity
  8
PIN_NUMBER
100
AcDbText
 10
7.1933334
 20
5.849999999999999
 30
0.0
 40
0.3
  1
81
 41
1.033333
 72
     1
 11
7.4
 21
5.849999999999999
 31
0.0
100
AcDbText
  0
LWPOLYLINE
  5
529
330
36
100
AcDbEntity
  8
TOP
100
AcDbPolyline
 90
        4
 70
     1
 43
0.0
 10
9.599999999999999
 20
6.349999999999999
 10
9.599999999999999
 20
5.349999999999999
 10
8.599999999999999
 20
5.349999999999999
 10
8.599999999999999
 20
6.349999999999999
  0
LWPOLYLINE
  5
535
330
36
100
AcDbEntity
  8
PASTEMASK_TOP
100
AcDbPolyline
 90
        4
 70
     1
 43
0.0
 10
9.599999999999999
 20
6.349999999999999
 10
9.599999999999999
 20
5.349999999999999
 10
8.599999999999999
 20
5.349999999999999
 10
8.599999999999999
 20
6.349999999999999
  0
TEXT
  5
53B
330
36
100
AcDbEntity
  8
PIN_NUMBER
100
AcDbText
 10
8.841666749999999
 20
5.849999999999999
 30
0.0
 40
0.3
  1
82
 41
1.033333
 72
     1
 11
9.099999999999999
 21
5.849999999999999
 31
0.0
100
AcDbText
  0
LWPOLYLINE
  5
53C
330
36
100
AcDbEntity
  8
TOP
100
AcDbPolyline
 90
        4
 70
     1
 43
0.0
 10
11.3
 20
6.349999999999999
 10
11.3
 20
5.349999999999999
 10
10.3
 20
5.349999999999999
 10
10.3
 20
6.349999999999999
  0
LWPOLYLINE
  5
548
330
36
100
AcDbEntity
  8
PASTEMASK_TOP
100
AcDbPolyline
 90
        4
 70
     1
 43
0.0
 10
11.3
 20
6.349999999999999
 10
11.3
 20
5.349999999999999
 10
10.3
 20
5.349999999999999
 10
10.3
 20
6.349999999999999
  0
TEXT
  5
54E
330
36
100
AcDbEntity
  8
PIN_NUMBER
100
AcDbText
 10
10.54166675
 20
5.849999999999999
 30
0.0
 40
0.3
  1
83
 41
1.033333
 72
     1
 11
10.8
 21
5.849999999999999
 31
0.0
100
AcDbText
  0
LWPOLYLINE
  5
54F
330
36
100
AcDbEntity
  8
TOP
100
AcDbPolyline
 90
        4
 70
     1
 43
0.0
 10
13.0
 20
6.349999999999999
 10
13.0
 20
5.349999999999999
 10
12.0
 20
5.349999999999999
 10
12.0
 20
6.349999999999999
  0
LWPOLYLINE
  5
55B
330
36
100
AcDbEntity
  8
PASTEMASK_TOP
100
AcDbPolyline
 90
        4
 70
     1
 43
0.0
 10
13.0
 20
6.349999999999999
 10
13.0
 20
5.349999999999999
 10
12.0
 20
5.349999999999999
 10
12.0
 20
6.349999999999999
  0
TEXT
  5
561
330
36
100
AcDbEntity
  8
PIN_NUMBER
100
AcDbText
 10
12.24166675
 20
5.849999999999999
 30
0.0
 40
0.3
  1
84
 41
1.033333
 72
     1
 11
12.5
 21
5.849999999999999
 31
0.0
100
AcDbText
  0
LWPOLYLINE
  5
562
330
36
100
AcDbEntity
  8
TOP
100
AcDbPolyline
 90
        4
 70
     1
 43
0.0
 10
13.7
 20
7.049999999999999
 10
13.7
 20
8.05
 10
14.7
 20
8.05
 10
14.7
 20
7.049999999999999
  0
LWPOLYLINE
  5
56E
330
36
100
AcDbEntity
  8
PASTEMASK_TOP
100
AcDbPolyline
 90
        4
 70
     1
 43
0.0
 10
13.7
 20
7.049999999999999
 10
13.7
 20
8.05
 10
14.7
 20
8.05
 10
14.7
 20
7.049999999999999
  0
TEXT
  5
574
330
36
100
AcDbEntity
  8
PIN_NUMBER
100
AcDbText
 10
13.94166675
 20
7.549999999999999
 30
0.0
 40
0.3
  1
85
 41
1.033333
 72
     1
 11
14.2
 21
7.549999999999999
 31
0.0
100
AcDbText
  0
LWPOLYLINE
  5
575
330
36
100
AcDbEntity
  8
TOP
100
AcDbPolyline
 90
        4
 70
     1
 43
0.0
 10
13.7
 20
8.75
 10
13.7
 20
9.75
 10
14.7
 20
9.75
 10
14.7
 20
8.75
  0
LWPOLYLINE
  5
581
330
36
100
AcDbEntity
  8
PASTEMASK_TOP
100
AcDbPolyline
 90
        4
 70
     1
 43
0.0
 10
13.7
 20
8.75
 10
13.7
 20
9.75
 10
14.7
 20
9.75
 10
14.7
 20
8.75
  0
TEXT
  5
587
330
36
100
AcDbEntity
  8
PIN_NUMBER
100
AcDbText
 10
13.94166675
 20
9.25
 30
0.0
 40
0.3
  1
86
 41
1.033333
 72
     1
 11
14.2
 21
9.25
 31
0.0
100
AcDbText
  0
LWPOLYLINE
  5
588
330
36
100
AcDbEntity
  8
TOP
100
AcDbPolyline
 90
        4
 70
     1
 43
0.0
 10
13.7
 20
10.45
 10
13.7
 20
11.45
 10
14.7
 20
11.45
 10
14.7
 20
10.45
  0
LWPOLYLINE
  5
594
330
36
100
AcDbEntity
  8
PASTEMASK_TOP
100
AcDbPolyline
 90
        4
 70
     1
 43
0.0
 10
13.7
 20
10.45
 10
13.7
 20
11.45
 10
14.7
 20
11.45
 10
14.7
 20
10.45
  0
TEXT
  5
59A
330
36
100
AcDbEntity
  8
PIN_NUMBER
100
AcDbText
 10
13.94166675
 20
10.95
 30
0.0
 40
0.3
  1
87
 41
1.033333
 72
     1
 11
14.2
 21
10.95
 31
0.0
100
AcDbText
  0
LWPOLYLINE
  5
59B
330
36
100
AcDbEntity
  8
TOP
100
AcDbPolyline
 90
        4
 70
     1
 43
0.0
 10
13.7
 20
12.15
 10
13.7
 20
13.15
 10
14.7
 20
13.15
 10
14.7
 20
12.15
  0
LWPOLYLINE
  5
5A7
330
36
100
AcDbEntity
  8
PASTEMASK_TOP
100
AcDbPolyline
 90
        4
 70
     1
 43
0.0
 10
13.7
 20
12.15
 10
13.7
 20
13.15
 10
14.7
 20
13.15
 10
14.7
 20
12.15
  0
TEXT
  5
5AD
330
36
100
AcDbEntity
  8
PIN_NUMBER
100
AcDbText
 10
13.94166675
 20
12.65
 30
0.0
 40
0.3
  1
88
 41
1.033333
 72
     1
 11
14.2
 21
12.65
 31
0.0
100
AcDbText
  0
LWPOLYLINE
  5
5AE
330
36
100
AcDbEntity
  8
TOP
100
AcDbPolyline
 90
        4
 70
     1
 43
0.0
 10
13.7
 20
13.85
 10
13.7
 20
14.85
 10
14.7
 20
14.85
 10
14.7
 20
13.85
  0
LWPOLYLINE
  5
5BA
330
36
100
AcDbEntity
  8
PASTEMASK_TOP
100
AcDbPolyline
 90
        4
 70
     1
 43
0.0
 10
13.7
 20
13.85
 10
13.7
 20
14.85
 10
14.7
 20
14.85
 10
14.7
 20
13.85
  0
TEXT
  5
5C0
330
36
100
AcDbEntity
  8
PIN_NUMBER
100
AcDbText
 10
13.94166675
 20
14.35
 30
0.0
 40
0.3
  1
89
 41
1.033333
 72
     1
 11
14.2
 21
14.35
 31
0.0
100
AcDbText
  0
LWPOLYLINE
  5
5C1
330
36
100
AcDbEntity
  8
TOP
100
AcDbPolyline
 90
        4
 70
     1
 43
0.0
 10
13.7
 20
15.55
 10
13.7
 20
16.55
 10
14.7
 20
16.55
 10
14.7
 20
15.55
  0
LWPOLYLINE
  5
5CD
330
36
100
AcDbEntity
  8
PASTEMASK_TOP
100
AcDbPolyline
 90
        4
 70
     1
 43
0.0
 10
13.7
 20
15.55
 10
13.7
 20
16.55
 10
14.7
 20
16.55
 10
14.7
 20
15.55
  0
TEXT
  5
5D3
330
36
100
AcDbEntity
  8
PIN_NUMBER
100
AcDbText
 10
13.967500075
 20
16.05
 30
0.0
 40
0.3
  1
90
 41
1.033333
 72
     1
 11
14.2
 21
16.05
 31
0.0
100
AcDbText
  0
LWPOLYLINE
  5
5D4
330
36
100
AcDbEntity
  8
TOP
100
AcDbPolyline
 90
        4
 70
     1
 43
0.0
 10
13.0
 20
18.25
 10
13.0
 20
17.25
 10
12.0
 20
17.25
 10
12.0
 20
18.25
  0
LWPOLYLINE
  5
5E0
330
36
100
AcDbEntity
  8
PASTEMASK_TOP
100
AcDbPolyline
 90
        4
 70
     1
 43
0.0
 10
13.0
 20
18.25
 10
13.0
 20
17.25
 10
12.0
 20
17.25
 10
12.0
 20
18.25
  0
TEXT
  5
5E6
330
36
100
AcDbEntity
  8
PIN_NUMBER
100
AcDbText
 10
12.2933334
 20
17.75
 30
0.0
 40
0.3
  1
91
 41
1.033333
 72
     1
 11
12.5
 21
17.75
 31
0.0
100
AcDbText
  0
LWPOLYLINE
  5
5E7
330
36
100
AcDbEntity
  8
TOP
100
AcDbPolyline
 90
        4
 70
     1
 43
0.0
 10
11.3
 20
18.25
 10
11.3
 20
17.25
 10
10.3
 20
17.25
 10
10.3
 20
18.25
  0
LWPOLYLINE
  5
5F3
330
36
100
AcDbEntity
  8
PASTEMASK_TOP
100
AcDbPolyline
 90
        4
 70
     1
 43
0.0
 10
11.3
 20
18.25
 10
11.3
 20
17.25
 10
10.3
 20
17.25
 10
10.3
 20
18.25
  0
TEXT
  5
5F9
330
36
100
AcDbEntity
  8
PIN_NUMBER
100
AcDbText
 10
10.54166675
 20
17.75
 30
0.0
 40
0.3
  1
92
 41
1.033333
 72
     1
 11
10.8
 21
17.75
 31
0.0
100
AcDbText
  0
LWPOLYLINE
  5
5FA
330
36
100
AcDbEntity
  8
TOP
100
AcDbPolyline
 90
        4
 70
     1
 43
0.0
 10
9.599999999999999
 20
18.25
 10
9.599999999999999
 20
17.25
 10
8.599999999999999
 20
17.25
 10
8.599999999999999
 20
18.25
  0
LWPOLYLINE
  5
606
330
36
100
AcDbEntity
  8
PASTEMASK_TOP
100
AcDbPolyline
 90
        4
 70
     1
 43
0.0
 10
9.599999999999999
 20
18.25
 10
9.599999999999999
 20
17.25
 10
8.599999999999999
 20
17.25
 10
8.599999999999999
 20
18.25
  0
TEXT
  5
60C
330
36
100
AcDbEntity
  8
PIN_NUMBER
100
AcDbText
 10
8.841666749999999
 20
17.75
 30
0.0
 40
0.3
  1
93
 41
1.033333
 72
     1
 11
9.099999999999999
 21
17.75
 31
0.0
100
AcDbText
  0
LWPOLYLINE
  5
60D
330
36
100
AcDbEntity
  8
TOP
100
AcDbPolyline
 90
        4
 70
     1
 43
0.0
 10
7.9
 20
18.25
 10
7.9
 20
17.25
 10
6.9
 20
17.25
 10
6.9
 20
18.25
  0
LWPOLYLINE
  5
619
330
36
100
AcDbEntity
  8
PASTEMASK_TOP
100
AcDbPolyline
 90
        4
 70
     1
 43
0.0
 10
7.9
 20
18.25
 10
7.9
 20
17.25
 10
6.9
 20
17.25
 10
6.9
 20
18.25
  0
TEXT
  5
61F
330
36
100
AcDbEntity
  8
PIN_NUMBER
100
AcDbText
 10
7.14166675
 20
17.75
 30
0.0
 40
0.3
  1
94
 41
1.033333
 72
     1
 11
7.4
 21
17.75
 31
0.0
100
AcDbText
  0
LWPOLYLINE
  5
620
330
36
100
AcDbEntity
  8
TOP
100
AcDbPolyline
 90
        4
 70
     1
 43
0.0
 10
16.35
 20
1.50005
 10
16.35
 20
-1.00005
 10
15.65
 20
-1.00005
 10
15.65
 20
1.50005
  0
LWPOLYLINE
  5
62C
330
36
100
AcDbEntity
  8
PASTEMASK_TOP
100
AcDbPolyline
 90
        4
 70
     1
 43
0.0
 10
16.35
 20
1.50005
 10
16.35
 20
-1.00005
 10
15.65
 20
-1.00005
 10
15.65
 20
1.50005
  0
TEXT
  5
632
330
36
100
AcDbEntity
  8
PIN_NUMBER
100
AcDbText
 10
15.74166675
 20
0.25
 30
0.0
 40
0.3
  1
27
 41
1.033333
 72
     1
 11
16.0
 21
0.25
 31
0.0
100
AcDbText
  0
LWPOLYLINE
  5
633
330
36
100
AcDbEntity
  8
TOP
100
AcDbPolyline
 90
        4
 70
     1
 43
0.0
 10
15.25
 20
1.50005
 10
15.25
 20
-1.00005
 10
14.55
 20
-1.00005
 10
14.55
 20
1.50005
  0
LWPOLYLINE
  5
63F
330
36
100
AcDbEntity
  8
PASTEMASK_TOP
100
AcDbPolyline
 90
        4
 70
     1
 43
0.0
 10
15.25
 20
1.50005
 10
15.25
 20
-1.00005
 10
14.55
 20
-1.00005
 10
14.55
 20
1.50005
  0
TEXT
  5
645
330
36
100
AcDbEntity
  8
PIN_NUMBER
100
AcDbText
 10
14.64166675
 20
0.25
 30
0.0
 40
0.3
  1
26
 41
1.033333
 72
     1
 11
14.9
 21
0.25
 31
0.0
100
AcDbText
  0
LWPOLYLINE
  5
646
330
36
100
AcDbEntity
  8
TOP
100
AcDbPolyline
 90
        4
 70
     1
 43
0.0
 10
14.15
 20
1.50005
 10
14.15
 20
-1.00005
 10
13.45
 20
-1.00005
 10
13.45
 20
1.50005
  0
LWPOLYLINE
  5
652
330
36
100
AcDbEntity
  8
PASTEMASK_TOP
100
AcDbPolyline
 90
        4
 70
     1
 43
0.0
 10
14.15
 20
1.50005
 10
14.15
 20
-1.00005
 10
13.45
 20
-1.00005
 10
13.45
 20
1.50005
  0
TEXT
  5
658
330
36
100
AcDbEntity
  8
PIN_NUMBER
100
AcDbText
 10
13.54166675
 20
0.25
 30
0.0
 40
0.3
  1
25
 41
1.033333
 72
     1
 11
13.8
 21
0.25
 31
0.0
100
AcDbText
  0
LWPOLYLINE
  5
659
330
36
100
AcDbEntity
  8
TOP
100
AcDbPolyline
 90
        4
 70
     1
 43
0.0
 10
13.05
 20
1.50005
 10
13.05
 20
-1.00005
 10
12.35
 20
-1.00005
 10
12.35
 20
1.50005
  0
LWPOLYLINE
  5
665
330
36
100
AcDbEntity
  8
PASTEMASK_TOP
100
AcDbPolyline
 90
        4
 70
     1
 43
0.0
 10
13.05
 20
1.50005
 10
13.05
 20
-1.00005
 10
12.35
 20
-1.00005
 10
12.35
 20
1.50005
  0
TEXT
  5
66B
330
36
100
AcDbEntity
  8
PIN_NUMBER
100
AcDbText
 10
12.44166675
 20
0.25
 30
0.0
 40
0.3
  1
24
 41
1.033333
 72
     1
 11
12.7
 21
0.25
 31
0.0
100
AcDbText
  0
LWPOLYLINE
  5
66C
330
36
100
AcDbEntity
  8
TOP
100
AcDbPolyline
 90
        4
 70
     1
 43
0.0
 10
11.95
 20
1.50005
 10
11.95
 20
-1.00005
 10
11.25
 20
-1.00005
 10
11.25
 20
1.50005
  0
LWPOLYLINE
  5
678
330
36
100
AcDbEntity
  8
PASTEMASK_TOP
100
AcDbPolyline
 90
        4
 70
     1
 43
0.0
 10
11.95
 20
1.50005
 10
11.95
 20
-1.00005
 10
11.25
 20
-1.00005
 10
11.25
 20
1.50005
  0
TEXT
  5
67E
330
36
100
AcDbEntity
  8
PIN_NUMBER
100
AcDbText
 10
11.34166675
 20
0.25
 30
0.0
 40
0.3
  1
23
 41
1.033333
 72
     1
 11
11.6
 21
0.25
 31
0.0
100
AcDbText
  0
LWPOLYLINE
  5
67F
330
36
100
AcDbEntity
  8
TOP
100
AcDbPolyline
 90
        4
 70
     1
 43
0.0
 10
10.85
 20
1.50005
 10
10.85
 20
-1.00005
 10
10.15
 20
-1.00005
 10
10.15
 20
1.50005
  0
LWPOLYLINE
  5
68B
330
36
100
AcDbEntity
  8
PASTEMASK_TOP
100
AcDbPolyline
 90
        4
 70
     1
 43
0.0
 10
10.85
 20
1.50005
 10
10.85
 20
-1.00005
 10
10.15
 20
-1.00005
 10
10.15
 20
1.50005
  0
TEXT
  5
691
330
36
100
AcDbEntity
  8
PIN_NUMBER
100
AcDbText
 10
10.24166675
 20
0.25
 30
0.0
 40
0.3
  1
22
 41
1.033333
 72
     1
 11
10.5
 21
0.25
 31
0.0
100
AcDbText
  0
LWPOLYLINE
  5
692
330
36
100
AcDbEntity
  8
TOP
100
AcDbPolyline
 90
        4
 70
     1
 43
0.0
 10
8.349999999999999
 20
1.50005
 10
8.349999999999999
 20
-1.00005
 10
7.65
 20
-1.00005
 10
7.65
 20
1.50005
  0
LWPOLYLINE
  5
69E
330
36
100
AcDbEntity
  8
PASTEMASK_TOP
100
AcDbPolyline
 90
        4
 70
     1
 43
0.0
 10
8.349999999999999
 20
1.50005
 10
8.349999999999999
 20
-1.00005
 10
7.65
 20
-1.00005
 10
7.65
 20
1.50005
  0
TEXT
  5
6A4
330
36
100
AcDbEntity
  8
PIN_NUMBER
100
AcDbText
 10
7.793333399999999
 20
0.25
 30
0.0
 40
0.3
  1
21
 41
1.033333
 72
     1
 11
8.0
 21
0.25
 31
0.0
100
AcDbText
  0
LWPOLYLINE
  5
6A5
330
36
100
AcDbEntity
  8
TOP
100
AcDbPolyline
 90
        4
 70
     1
 43
0.0
 10
3.95
 20
1.50005
 10
3.95
 20
-1.00005
 10
3.25
 20
-1.00005
 10
3.25
 20
1.50005
  0
LWPOLYLINE
  5
6B1
330
36
100
AcDbEntity
  8
PASTEMASK_TOP
100
AcDbPolyline
 90
        4
 70
     1
 43
0.0
 10
3.95
 20
1.50005
 10
3.95
 20
-1.00005
 10
3.25
 20
-1.00005
 10
3.25
 20
1.50005
  0
TEXT
  5
6B7
330
36
100
AcDbEntity
  8
PIN_NUMBER
100
AcDbText
 10
3.393333399999999
 20
0.25
 30
0.0
 40
0.3
  1
17
 41
1.033333
 72
     1
 11
3.6
 21
0.25
 31
0.0
100
AcDbText
  0
LWPOLYLINE
  5
6B8
330
36
100
AcDbEntity
  8
TOP
100
AcDbPolyline
 90
        4
 70
     1
 43
0.0
 10
5.049999999999999
 20
1.50005
 10
5.049999999999999
 20
-1.00005
 10
4.349999999999999
 20
-1.00005
 10
4.349999999999999
 20
1.50005
  0
LWPOLYLINE
  5
6C4
330
36
100
AcDbEntity
  8
PASTEMASK_TOP
100
AcDbPolyline
 90
        4
 70
     1
 43
0.0
 10
5.049999999999999
 20
1.50005
 10
5.049999999999999
 20
-1.00005
 10
4.349999999999999
 20
-1.00005
 10
4.349999999999999
 20
1.50005
  0
TEXT
  5
6CA
330
36
100
AcDbEntity
  8
PIN_NUMBER
100
AcDbText
 10
4.4933334
 20
0.25
 30
0.0
 40
0.3
  1
18
 41
1.033333
 72
     1
 11
4.7
 21
0.25
 31
0.0
100
AcDbText
  0
LWPOLYLINE
  5
6CB
330
36
100
AcDbEntity
  8
TOP
100
AcDbPolyline
 90
        4
 70
     1
 43
0.0
 10
6.15
 20
1.50005
 10
6.15
 20
-1.00005
 10
5.45
 20
-1.00005
 10
5.45
 20
1.50005
  0
LWPOLYLINE
  5
6D7
330
36
100
AcDbEntity
  8
PASTEMASK_TOP
100
AcDbPolyline
 90
        4
 70
     1
 43
0.0
 10
6.15
 20
1.50005
 10
6.15
 20
-1.00005
 10
5.45
 20
-1.00005
 10
5.45
 20
1.50005
  0
TEXT
  5
6DD
330
36
100
AcDbEntity
  8
PIN_NUMBER
100
AcDbText
 10
5.593333399999999
 20
0.25
 30
0.0
 40
0.3
  1
19
 41
1.033333
 72
     1
 11
5.799999999999999
 21
0.25
 31
0.0
100
AcDbText
  0
LWPOLYLINE
  5
6DE
330
36
100
AcDbEntity
  8
TOP
100
AcDbPolyline
 90
        4
 70
     1
 43
0.0
 10
7.25
 20
1.50005
 10
7.25
 20
-1.00005
 10
6.549999999999999
 20
-1.00005
 10
6.549999999999999
 20
1.50005
  0
LWPOLYLINE
  5
6EA
330
36
100
AcDbEntity
  8
PASTEMASK_TOP
100
AcDbPolyline
 90
        4
 70
     1
 43
0.0
 10
7.25
 20
1.50005
 10
7.25
 20
-1.00005
 10
6.549999999999999
 20
-1.00005
 10
6.549999999999999
 20
1.50005
  0
TEXT
  5
6F0
330
36
100
AcDbEntity
  8
PIN_NUMBER
100
AcDbText
 10
6.667500075
 20
0.25
 30
0.0
 40
0.3
  1
20
 41
1.033333
 72
     1
 11
6.9
 21
0.25
 31
0.0
100
AcDbText
  0
LWPOLYLINE
  5
6F1
330
36
100
AcDbEntity
  8
TOP
100
AcDbPolyline
 90
        4
 70
     1
 43
0.0
 10
15.25
 20
24.60005
 10
15.25
 20
22.09995
 10
14.55
 20
22.09995
 10
14.55
 20
24.60005
  0
LWPOLYLINE
  5
6FD
330
36
100
AcDbEntity
  8
PASTEMASK_TOP
100
AcDbPolyline
 90
        4
 70
     1
 43
0.0
 10
15.25
 20
24.60005
 10
15.25
 20
22.09995
 10
14.55
 20
22.09995
 10
14.55
 20
24.60005
  0
TEXT
  5
703
330
36
100
AcDbEntity
  8
PIN_NUMBER
100
AcDbText
 10
14.64166675
 20
23.35
 30
0.0
 40
0.3
  1
45
 41
1.033333
 72
     1
 11
14.9
 21
23.35
 31
0.0
100
AcDbText
  0
LWPOLYLINE
  5
704
330
36
100
AcDbEntity
  8
TOP
100
AcDbPolyline
 90
        4
 70
     1
 43
0.0
 10
16.35
 20
24.60005
 10
16.35
 20
22.09995
 10
15.65
 20
22.09995
 10
15.65
 20
24.60005
  0
LWPOLYLINE
  5
710
330
36
100
AcDbEntity
  8
PASTEMASK_TOP
100
AcDbPolyline
 90
        4
 70
     1
 43
0.0
 10
16.35
 20
24.60005
 10
16.35
 20
22.09995
 10
15.65
 20
22.09995
 10
15.65
 20
24.60005
  0
TEXT
  5
716
330
36
100
AcDbEntity
  8
PIN_NUMBER
100
AcDbText
 10
15.74166675
 20
23.35
 30
0.0
 40
0.3
  1
44
 41
1.033333
 72
     1
 11
16.0
 21
23.35
 31
0.0
100
AcDbText
  0
LWPOLYLINE
  5
717
330
36
100
AcDbEntity
  8
TOP
100
AcDbPolyline
 90
        4
 70
     1
 43
0.0
 10
13.05
 20
24.60005
 10
13.05
 20
22.09995
 10
12.35
 20
22.09995
 10
12.35
 20
24.60005
  0
LWPOLYLINE
  5
723
330
36
100
AcDbEntity
  8
PASTEMASK_TOP
100
AcDbPolyline
 90
        4
 70
     1
 43
0.0
 10
13.05
 20
24.60005
 10
13.05
 20
22.09995
 10
12.35
 20
22.09995
 10
12.35
 20
24.60005
  0
TEXT
  5
729
330
36
100
AcDbEntity
  8
PIN_NUMBER
100
AcDbText
 10
12.44166675
 20
23.35
 30
0.0
 40
0.3
  1
47
 41
1.033333
 72
     1
 11
12.7
 21
23.35
 31
0.0
100
AcDbText
  0
LWPOLYLINE
  5
72A
330
36
100
AcDbEntity
  8
TOP
100
AcDbPolyline
 90
        4
 70
     1
 43
0.0
 10
14.15
 20
24.60005
 10
14.15
 20
22.09995
 10
13.45
 20
22.09995
 10
13.45
 20
24.60005
  0
LWPOLYLINE
  5
736
330
36
100
AcDbEntity
  8
PASTEMASK_TOP
100
AcDbPolyline
 90
        4
 70
     1
 43
0.0
 10
14.15
 20
24.60005
 10
14.15
 20
22.09995
 10
13.45
 20
22.09995
 10
13.45
 20
24.60005
  0
TEXT
  5
73C
330
36
100
AcDbEntity
  8
PIN_NUMBER
100
AcDbText
 10
13.54166675
 20
23.35
 30
0.0
 40
0.3
  1
46
 41
1.033333
 72
     1
 11
13.8
 21
23.35
 31
0.0
100
AcDbText
  0
LWPOLYLINE
  5
73D
330
36
100
AcDbEntity
  8
TOP
100
AcDbPolyline
 90
        4
 70
     1
 43
0.0
 10
8.349999999999999
 20
24.60005
 10
8.349999999999999
 20
22.09995
 10
7.65
 20
22.09995
 10
7.65
 20
24.60005
  0
LWPOLYLINE
  5
749
330
36
100
AcDbEntity
  8
PASTEMASK_TOP
100
AcDbPolyline
 90
        4
 70
     1
 43
0.0
 10
8.349999999999999
 20
24.60005
 10
8.349999999999999
 20
22.09995
 10
7.65
 20
22.09995
 10
7.65
 20
24.60005
  0
TEXT
  5
74F
330
36
100
AcDbEntity
  8
PIN_NUMBER
100
AcDbText
 10
7.767500075
 20
23.35
 30
0.0
 40
0.3
  1
50
 41
1.033333
 72
     1
 11
8.0
 21
23.35
 31
0.0
100
AcDbText
  0
LWPOLYLINE
  5
750
330
36
100
AcDbEntity
  8
TOP
100
AcDbPolyline
 90
        4
 70
     1
 43
0.0
 10
10.85
 20
24.60005
 10
10.85
 20
22.09995
 10
10.15
 20
22.09995
 10
10.15
 20
24.60005
  0
LWPOLYLINE
  5
75C
330
36
100
AcDbEntity
  8
PASTEMASK_TOP
100
AcDbPolyline
 90
        4
 70
     1
 43
0.0
 10
10.85
 20
24.60005
 10
10.85
 20
22.09995
 10
10.15
 20
22.09995
 10
10.15
 20
24.60005
  0
TEXT
  5
762
330
36
100
AcDbEntity
  8
PIN_NUMBER
100
AcDbText
 10
10.24166675
 20
23.35
 30
0.0
 40
0.3
  1
49
 41
1.033333
 72
     1
 11
10.5
 21
23.35
 31
0.0
100
AcDbText
  0
LWPOLYLINE
  5
763
330
36
100
AcDbEntity
  8
TOP
100
AcDbPolyline
 90
        4
 70
     1
 43
0.0
 10
11.95
 20
24.60005
 10
11.95
 20
22.09995
 10
11.25
 20
22.09995
 10
11.25
 20
24.60005
  0
LWPOLYLINE
  5
76F
330
36
100
AcDbEntity
  8
PASTEMASK_TOP
100
AcDbPolyline
 90
        4
 70
     1
 43
0.0
 10
11.95
 20
24.60005
 10
11.95
 20
22.09995
 10
11.25
 20
22.09995
 10
11.25
 20
24.60005
  0
TEXT
  5
775
330
36
100
AcDbEntity
  8
PIN_NUMBER
100
AcDbText
 10
11.34166675
 20
23.35
 30
0.0
 40
0.3
  1
48
 41
1.033333
 72
     1
 11
11.6
 21
23.35
 31
0.0
100
AcDbText
  0
LWPOLYLINE
  5
776
330
36
100
AcDbEntity
  8
TOP
100
AcDbPolyline
 90
        4
 70
     1
 43
0.0
 10
3.95
 20
24.60005
 10
3.95
 20
22.09995
 10
3.25
 20
22.09995
 10
3.25
 20
24.60005
  0
LWPOLYLINE
  5
782
330
36
100
AcDbEntity
  8
PASTEMASK_TOP
100
AcDbPolyline
 90
        4
 70
     1
 43
0.0
 10
3.95
 20
24.60005
 10
3.95
 20
22.09995
 10
3.25
 20
22.09995
 10
3.25
 20
24.60005
  0
TEXT
  5
788
330
36
100
AcDbEntity
  8
PIN_NUMBER
100
AcDbText
 10
3.341666749999999
 20
23.35
 30
0.0
 40
0.3
  1
54
 41
1.033333
 72
     1
 11
3.6
 21
23.35
 31
0.0
100
AcDbText
  0
LWPOLYLINE
  5
789
330
36
100
AcDbEntity
  8
TOP
100
AcDbPolyline
 90
        4
 70
     1
 43
0.0
 10
6.15
 20
24.60005
 10
6.15
 20
22.09995
 10
5.45
 20
22.09995
 10
5.45
 20
24.60005
  0
LWPOLYLINE
  5
795
330
36
100
AcDbEntity
  8
PASTEMASK_TOP
100
AcDbPolyline
 90
        4
 70
     1
 43
0.0
 10
6.15
 20
24.60005
 10
6.15
 20
22.09995
 10
5.45
 20
22.09995
 10
5.45
 20
24.60005
  0
TEXT
  5
79B
330
36
100
AcDbEntity
  8
PIN_NUMBER
100
AcDbText
 10
5.54166675
 20
23.35
 30
0.0
 40
0.3
  1
52
 41
1.033333
 72
     1
 11
5.799999999999999
 21
23.35
 31
0.0
100
AcDbText
  0
LWPOLYLINE
  5
79C
330
36
100
AcDbEntity
  8
TOP
100
AcDbPolyline
 90
        4
 70
     1
 43
0.0
 10
7.25
 20
24.60005
 10
7.25
 20
22.09995
 10
6.549999999999999
 20
22.09995
 10
6.549999999999999
 20
24.60005
  0
LWPOLYLINE
  5
7A8
330
36
100
AcDbEntity
  8
PASTEMASK_TOP
100
AcDbPolyline
 90
        4
 70
     1
 43
0.0
 10
7.25
 20
24.60005
 10
7.25
 20
22.09995
 10
6.549999999999999
 20
22.09995
 10
6.549999999999999
 20
24.60005
  0
TEXT
  5
7AE
330
36
100
AcDbEntity
  8
PIN_NUMBER
100
AcDbText
 10
6.6933334
 20
23.35
 30
0.0
 40
0.3
  1
51
 41
1.033333
 72
     1
 11
6.9
 21
23.35
 31
0.0
100
AcDbText
  0
LWPOLYLINE
  5
7AF
330
36
100
AcDbEntity
  8
TOP
100
AcDbPolyline
 90
        4
 70
     1
 43
0.0
 10
5.049999999999999
 20
24.60005
 10
5.049999999999999
 20
22.09995
 10
4.349999999999999
 20
22.09995
 10
4.349999999999999
 20
24.60005
  0
LWPOLYLINE
  5
7BB
330
36
100
AcDbEntity
  8
PASTEMASK_TOP
100
AcDbPolyline
 90
        4
 70
     1
 43
0.0
 10
5.049999999999999
 20
24.60005
 10
5.049999999999999
 20
22.09995
 10
4.349999999999999
 20
22.09995
 10
4.349999999999999
 20
24.60005
  0
TEXT
  5
7C1
330
36
100
AcDbEntity
  8
PIN_NUMBER
100
AcDbText
 10
4.44166675
 20
23.35
 30
0.0
 40
0.3
  1
53
 41
1.033333
 72
     1
 11
4.7
 21
23.35
 31
0.0
100
AcDbText
  0
ENDSEC
  0
SECTION
  2
OBJECTS
  0
DICTIONARY
  5
C
330
0
100
AcDbDictionary
281
     1
  3
ACAD_COLOR
350
2F
  3
ACAD_GROUP
350
D
  3
ACAD_LAYOUT
350
2E
  3
ACAD_MATERIAL
350
10
  3
ACAD_MLINESTYLE
350
2B
  3
ACAD_PLOTSETTINGS
350
2D
  3
ACAD_PLOTSTYLENAME
350
E
  3
ACAD_TABLESTYLE
350
30
  3
ACAD_VISUALSTYLE
350
14
  3
AcDbVariableDictionary
350
7CA
  0
DICTIONARY
  5
2F
102
{ACAD_REACTORS
330
C
102
}
330
C
100
AcDbDictionary
281
     1
  0
DICTIONARY
  5
D
102
{ACAD_REACTORS
330
C
102
}
330
C
100
AcDbDictionary
281
     1
  0
DICTIONARY
  5
2E
102
{ACAD_REACTORS
330
C
102
}
330
C
100
AcDbDictionary
281
     1
  3
Model
350
39
  3
1
350
35
  0
DICTIONARY
  5
10
102
{ACAD_REACTORS
330
C
102
}
330
C
100
AcDbDictionary
281
     1
  3
ByBlock
350
12
  3
ByLayer
350
11
  3
Global
350
13
  0
DICTIONARY
  5
2B
102
{ACAD_REACTORS
330
C
102
}
330
C
100
AcDbDictionary
281
     1
  3
Standard
350
2C
  0
DICTIONARY
  5
2D
102
{ACAD_REACTORS
330
C
102
}
330
C
100
AcDbDictionary
281
     1
  0
ACDBDICTIONARYWDFLT
  5
E
102
{ACAD_REACTORS
330
C
102
}
330
C
100
AcDbDictionary
281
     1
  3
Normal
350
F
100
AcDbDictionaryWithDefault
340
F
  0
DICTIONARY
  5
30
102
{ACAD_REACTORS
330
C
102
}
330
C
100
AcDbDictionary
281
     1
  3
Standard
350
31
  0
DICTIONARY
  5
14
102
{ACAD_REACTORS
330
C
102
}
330
C
100
AcDbDictionary
281
     1
  3
2dWireframe
350
1A
  3
3D Hidden
350
1C
  3
3dWireframe
350
1B
  3
Basic
350
19
  3
Brighten
350
20
  3
ColorChange
350
24
  3
Conceptual
350
1D
  3
Dim
350
1F
  3
Facepattern
350
23
  3
Flat
350
15
  3
FlatWithEdges
350
16
  3
Gouraud
350
17
  3
GouraudWithEdges
350
18
  3
Linepattern
350
22
  3
Realistic
350
1E
  3
Thicken
350
21
  0
DICTIONARY
  5
7CA
102
{ACAD_REACTORS
330
C
102
}
330
C
100
AcDbDictionary
281
     1
  3
CTABLESTYLE
350
7CB
  0
LAYOUT
  5
39
102
{ACAD_REACTORS
330
2E
102
}
330
2E
100
AcDbPlotSettings
  1

  2
C:\Users\Administrator\AppData\Roaming\Autodesk\AutoCAD 2007\R17.0\chs\plotters\Default Windows System Printer.pc3
  4

  6

 40
0.0
 41
0.0
 42
0.0
 43
0.0
 44
0.0
 45
0.0
 46
0.0
 47
0.0
 48
0.0
 49
0.0
140
0.0
141
0.0
142
1.0
143
1.0
 70
  1712
 72
     0
 73
     0
 74
     0
  7

 75
     0
147
1.0
 76
     0
 77
     2
 78
   300
148
0.0
149
0.0
100
AcDbLayout
  1
Model
 70
     1
 71
     0
 10
0.0
 20
0.0
 11
12.0
 21
9.0
 12
0.0
 22
0.0
 32
0.0
 14
0.0
 24
0.0
 34
0.0
 15
0.0
 25
0.0
 35
0.0
146
0.0
 13
0.0
 23
0.0
 33
0.0
 16
1.0
 26
0.0
 36
0.0
 17
0.0
 27
1.0
 37
0.0
 76
     0
330
36
331
40
  0
LAYOUT
  5
35
102
{ACAD_REACTORS
330
2E
102
}
330
2E
100
AcDbPlotSettings
  1

  2
C:\Users\Administrator\AppData\Roaming\Autodesk\AutoCAD 2007\R17.0\chs\plotters\Default Windows System Printer.pc3
  4

  6

 40
0.0
 41
0.0
 42
0.0
 43
0.0
 44
0.0
 45
0.0
 46
0.0
 47
0.0
 48
0.0
 49
0.0
140
0.0
141
0.0
142
1.0
143
1.0
 70
   688
 72
     0
 73
     0
 74
     5
  7

 75
    16
147
1.0
 76
     0
 77
     2
 78
   300
148
0.0
149
0.0
100
AcDbLayout
  1
1
 70
     1
 71
     1
 10
0.0
 20
0.0
 11
12.0
 21
9.0
 12
0.0
 22
0.0
 32
0.0
 14
1.000000000000000E+20
 24
1.000000000000000E+20
 34
1.000000000000000E+20
 15
-1.000000000000000E+20
 25
-1.000000000000000E+20
 35
-1.000000000000000E+20
146
0.0
 13
0.0
 23
0.0
 33
0.0
 16
1.0
 26
0.0
 36
0.0
 17
0.0
 27
1.0
 37
0.0
 76
     0
330
32
  0
MATERIAL
  5
12
102
{ACAD_XDICTIONARY
360
7CE
102
}
102
{ACAD_REACTORS
330
10
102
}
330
10
100
AcDbMaterial
  1
ByBlock
  0
MATERIAL
  5
11
102
{ACAD_XDICTIONARY
360
7CC
102
}
102
{ACAD_REACTORS
330
10
102
}
330
10
100
AcDbMaterial
  1
ByLayer
  0
MATERIAL
  5
13
102
{ACAD_XDICTIONARY
360
7D0
102
}
102
{ACAD_REACTORS
330
10
102
}
330
10
100
AcDbMaterial
  1
Global
  0
MLINESTYLE
  5
2C
102
{ACAD_REACTORS
330
2B
102
}
330
2B
100
AcDbMlineStyle
  2
STANDARD
 70
     0
  3

 62
   256
 51
90.0
 52
90.0
 71
     2
 49
0.5
 62
   256
  6
BYLAYER
 49
-0.5
 62
   256
  6
BYLAYER
  0
ACDBPLACEHOLDER
  5
F
102
{ACAD_REACTORS
330
E
102
}
330
E
  0
TABLESTYLE
  5
31
102
{ACAD_XDICTIONARY
360
7D2
102
}
102
{ACAD_REACTORS
330
30
102
}
330
30
100
AcDbTableStyle
  3
Standard
 70
     0
 71
     0
 40
0.06
 41
0.06
280
     0
281
     0
  7
STANDARD
140
0.18
170
     2
 62
     0
 63
     7
283
     0
274
    -2
284
     1
 64
     0
275
    -2
285
     1
 65
     0
276
    -2
286
     1
 66
     0
277
    -2
287
     1
 67
     0
278
    -2
288
     1
 68
     0
279
    -2
289
     1
 69
     0
  7
STANDARD
140
0.25
170
     5
 62
     0
 63
     7
283
     0
274
    -2
284
     1
 64
     0
275
    -2
285
     1
 65
     0
276
    -2
286
     1
 66
     0
277
    -2
287
     1
 67
     0
278
    -2
288
     1
 68
     0
279
    -2
289
     1
 69
     0
  7
STANDARD
140
0.18
170
     5
 62
     0
 63
     7
283
     0
274
    -2
284
     1
 64
     0
275
    -2
285
     1
 65
     0
276
    -2
286
     1
 66
     0
277
    -2
287
     1
 67
     0
278
    -2
288
     1
 68
     0
279
    -2
289
     1
 69
     0
  0
VISUALSTYLE
  5
1A
102
{ACAD_REACTORS
330
14
102
}
330
14
100
AcDbVisualStyle
  2
2dWireframe
 70
     4
 71
     0
 72
     2
 73
     0
 90
        0
 40
-0.6
 41
-30.0
 62
     5
 63
     7
421
 16777215
 74
     1
 91
        4
 64
     7
 65
   257
 75
     1
175
     1
 42
1.0
 92
        0
 66
   257
 43
1.0
 76
     1
 77
     6
 78
     2
 67
     7
 79
     5
170
     0
171
     0
290
     0
174
     0
 93
        1
 44
0.0
173
     0
291
     0
 45
0.0
1001
ACAD
1000
AcDbSavedByObjectVersion
1070
     0
  0
VISUALSTYLE
  5
1C
102
{ACAD_REACTORS
330
14
102
}
330
14
100
AcDbVisualStyle
  2
3D Hidden
 70
     6
 71
     1
 72
     2
 73
     2
 90
        0
 40
-0.6
 41
-30.0
 62
     5
 63
     7
421
 16777215
 74
     2
 91
        2
 64
     7
 65
   257
 75
     2
175
     1
 42
40.0
 92
        0
 66
   257
 43
1.0
 76
     1
 77
     6
 78
     2
 67
     7
 79
     3
170
     0
171
     0
290
     0
174
     0
 93
        1
 44
0.0
173
     0
291
     0
 45
0.0
1001
ACAD
1000
AcDbSavedByObjectVersion
1070
     0
  0
VISUALSTYLE
  5
1B
102
{ACAD_REACTORS
330
14
102
}
330
14
100
AcDbVisualStyle
  2
3dWireframe
 70
     5
 71
     0
 72
     2
 73
     0
 90
        0
 40
-0.6
 41
-30.0
 62
     5
 63
     7
421
 16777215
 74
     1
 91
        4
 64
     7
 65
   257
 75
     1
175
     1
 42
1.0
 92
        0
 66
   257
 43
1.0
 76
     1
 77
     6
 78
     2
 67
     7
 79
     5
170
     0
171
     0
290
     0
174
     0
 93
        1
 44
0.0
173
     0
291
     0
 45
0.0
1001
ACAD
1000
AcDbSavedByObjectVersion
1070
     0
  0
VISUALSTYLE
  5
19
102
{ACAD_REACTORS
330
14
102
}
330
14
100
AcDbVisualStyle
  2
Basic
 70
     7
 71
     1
 72
     0
 73
     1
 90
        0
 40
-0.6
 41
-30.0
 62
     5
 63
     7
421
 16777215
 74
     0
 91
        4
 64
     7
 65
   257
 75
     1
175
     1
 42
1.0
 92
        8
 66
     7
 43
1.0
 76
     1
 77
     6
 78
     2
 67
     7
 79
     5
170
     0
171
     0
290
     0
174
     0
 93
        1
 44
0.0
173
     0
291
     1
 45
0.0
1001
ACAD
1000
AcDbSavedByObjectVersion
1070
     0
  0
VISUALSTYLE
  5
20
102
{ACAD_REACTORS
330
14
102
}
330
14
100
AcDbVisualStyle
  2
Brighten
 70
    12
 71
     2
 72
     2
 73
     0
 90
        0
 40
-0.6
 41
-30.0
 62
     5
 63
     7
421
 16777215
 74
     1
 91
        4
 64
     7
 65
   257
 75
     1
175
     1
 42
1.0
 92
        8
 66
     7
 43
1.0
 76
     1
 77
     6
 78
     2
 67
     7
 79
     5
170
     0
171
     0
290
     0
174
     0
 93
        1
 44
50.0
173
     0
291
     1
 45
0.0
1001
ACAD
1000
AcDbSavedByObjectVersion
1070
     0
  0
VISUALSTYLE
  5
24
102
{ACAD_REACTORS
330
14
102
}
330
14
100
AcDbVisualStyle
  2
ColorChange
 70
    16
 71
     2
 72
     2
 73
     3
 90
        0
 40
-0.6
 41
-30.0
 62
     5
 63
     8
421
  8421504
 74
     1
 91
        4
 64
     7
 65
   257
 75
     1
175
     1
 42
1.0
 92
        8
 66
     8
424
  8421504
 43
1.0
 76
     1
 77
     6
 78
     2
 67
     7
 79
     5
170
     0
171
     0
290
     0
174
     0
 93
        1
 44
0.0
173
     0
291
     1
 45
0.0
1001
ACAD
1000
AcDbSavedByObjectVersion
1070
     0
  0
VISUALSTYLE
  5
1D
102
{ACAD_REACTORS
330
14
102
}
330
14
100
AcDbVisualStyle
  2
Conceptual
 70
     9
 71
     3
 72
     2
 73
     0
 90
        0
 40
-0.6
 41
-30.0
 62
     5
 63
     7
421
 16777215
 74
     2
 91
        2
 64
     7
 65
   257
 75
     1
175
     1
 42
40.0
 92
        8
 66
     7
 43
1.0
 76
     1
 77
     6
 78
     2
 67
     7
 79
     3
170
     0
171
     0
290
     0
174
     0
 93
        1
 44
0.0
173
     0
291
     0
 45
0.0
1001
ACAD
1000
AcDbSavedByObjectVersion
1070
     0
  0
VISUALSTYLE
  5
1F
102
{ACAD_REACTORS
330
14
102
}
330
14
100
AcDbVisualStyle
  2
Dim
 70
    11
 71
     2
 72
     2
 73
     0
 90
        0
 40
-0.6
 41
-30.0
 62
     5
 63
     7
421
 16777215
 74
     1
 91
        4
 64
     7
 65
   257
 75
     1
175
     1
 42
1.0
 92
        8
 66
     7
 43
1.0
 76
     1
 77
     6
 78
     2
 67
     7
 79
     5
170
     0
171
     0
290
     0
174
     0
 93
        1
 44
-50.0
173
     0
291
     1
 45
0.0
1001
ACAD
1000
AcDbSavedByObjectVersion
1070
     0
  0
VISUALSTYLE
  5
23
102
{ACAD_REACTORS
330
14
102
}
330
14
100
AcDbVisualStyle
  2
Facepattern
 70
    15
 71
     2
 72
     2
 73
     0
 90
        0
 40
-0.6
 41
-30.0
 62
     5
 63
     7
421
 16777215
 74
     1
 91
        4
 64
     7
 65
   257
 75
     1
175
     1
 42
1.0
 92
        8
 66
     7
 43
1.0
 76
     1
 77
     6
 78
     2
 67
     7
 79
     5
170
     0
171
     0
290
     0
174
     0
 93
        1
 44
0.0
173
     0
291
     1
 45
0.0
1001
ACAD
1000
AcDbSavedByObjectVersion
1070
     0
  0
VISUALSTYLE
  5
15
102
{ACAD_REACTORS
330
14
102
}
330
14
100
AcDbVisualStyle
  2
Flat
 70
     0
 71
     2
 72
     1
 73
     1
 90
        2
 40
-0.6
 41
30.0
 62
     5
 63
     7
421
 16777215
 74
     0
 91
        4
 64
     7
 65
   257
 75
     1
175
     1
 42
1.0
 92
        8
 66
     7
 43
1.0
 76
     1
 77
     6
 78
     2
 67
     7
 79
     5
170
     0
171
     0
290
     0
174
     0
 93
       13
 44
0.0
173
     0
291
     1
 45
0.0
1001
ACAD
1000
AcDbSavedByObjectVersion
1070
     0
  0
VISUALSTYLE
  5
16
102
{ACAD_REACTORS
330
14
102
}
330
14
100
AcDbVisualStyle
  2
FlatWithEdges
 70
     1
 71
     2
 72
     1
 73
     1
 90
        2
 40
-0.6
 41
30.0
 62
     5
 63
     7
421
 16777215
 74
     1
 91
        4
 64
     7
 65
   257
 75
     1
175
     1
 42
1.0
 92
        0
 66
   257
 43
1.0
 76
     1
 77
     6
 78
     2
 67
     7
 79
     5
170
     0
171
     0
290
     0
174
     0
 93
       13
 44
0.0
173
     0
291
     1
 45
0.0
1001
ACAD
1000
AcDbSavedByObjectVersion
1070
     0
  0
VISUALSTYLE
  5
17
102
{ACAD_REACTORS
330
14
102
}
330
14
100
AcDbVisualStyle
  2
Gouraud
 70
     2
 71
     2
 72
     2
 73
     1
 90
        2
 40
-0.6
 41
30.0
 62
     5
 63
     7
421
 16777215
 74
     0
 91
        4
 64
     7
 65
   257
 75
     1
175
     1
 42
1.0
 92
        0
 66
     7
 43
1.0
 76
     1
 77
     6
 78
     2
 67
     7
 79
     5
170
     0
171
     0
290
     0
174
     0
 93
       13
 44
0.0
173
     0
291
     1
 45
0.0
1001
ACAD
1000
AcDbSavedByObjectVersion
1070
     0
  0
VISUALSTYLE
  5
18
102
{ACAD_REACTORS
330
14
102
}
330
14
100
AcDbVisualStyle
  2
GouraudWithEdges
 70
     3
 71
     2
 72
     2
 73
     1
 90
        2
 40
-0.6
 41
30.0
 62
     5
 63
     7
421
 16777215
 74
     1
 91
        4
 64
     7
 65
   257
 75
     1
175
     1
 42
1.0
 92
        0
 66
   257
 43
1.0
 76
     1
 77
     6
 78
     2
 67
     7
 79
     5
170
     0
171
     0
290
     0
174
     0
 93
       13
 44
0.0
173
     0
291
     1
 45
0.0
1001
ACAD
1000
AcDbSavedByObjectVersion
1070
     0
  0
VISUALSTYLE
  5
22
102
{ACAD_REACTORS
330
14
102
}
330
14
100
AcDbVisualStyle
  2
Linepattern
 70
    14
 71
     2
 72
     2
 73
     0
 90
        0
 40
-0.6
 41
-30.0
 62
     5
 63
     7
421
 16777215
 74
     1
 91
        4
 64
     7
 65
   257
 75
     7
175
     7
 42
1.0
 92
        8
 66
     7
 43
1.0
 76
     1
 77
     6
 78
     2
 67
     7
 79
     5
170
     0
171
     0
290
     0
174
     0
 93
        1
 44
0.0
173
     0
291
     1
 45
0.0
1001
ACAD
1000
AcDbSavedByObjectVersion
1070
     0
  0
VISUALSTYLE
  5
1E
102
{ACAD_REACTORS
330
14
102
}
330
14
100
AcDbVisualStyle
  2
Realistic
 70
     8
 71
     2
 72
     2
 73
     0
 90
        0
 40
-0.6
 41
-30.0
 62
     5
 63
     7
421
 16777215
 74
     1
 91
        0
 64
     7
 65
   257
 75
     1
175
     1
 42
1.0
 92
        8
 66
     8
424
  7895160
 43
1.0
 76
     1
 77
     6
 78
     2
 67
     7
 79
     5
170
     0
171
     0
290
     0
174
     0
 93
       13
 44
0.0
173
     0
291
     0
 45
0.0
1001
ACAD
1000
AcDbSavedByObjectVersion
1070
     0
  0
VISUALSTYLE
  5
21
102
{ACAD_REACTORS
330
14
102
}
330
14
100
AcDbVisualStyle
  2
Thicken
 70
    13
 71
     2
 72
     2
 73
     0
 90
        0
 40
-0.6
 41
-30.0
 62
     5
 63
     7
421
 16777215
 74
     1
 91
        4
 64
     7
 65
   257
 75
     1
175
     1
 42
1.0
 92
       12
 66
     7
 43
1.0
 76
     1
 77
     6
 78
     2
 67
     7
 79
     5
170
     0
171
     0
290
     0
174
     0
 93
        1
 44
0.0
173
     0
291
     1
 45
0.0
1001
ACAD
1000
AcDbSavedByObjectVersion
1070
     0
  0
DICTIONARYVAR
  5
7CB
102
{ACAD_REACTORS
330
7CA
102
}
330
7CA
100
DictionaryVariables
280
     0
  1
STANDARD
  0
DICTIONARY
  5
7CE
330
12
100
AcDbDictionary
280
     1
281
     1
  3
ACAD_XREC_ROUNDTRIP
360
7CF
  0
DICTIONARY
  5
7CC
330
11
100
AcDbDictionary
280
     1
281
     1
  3
ACAD_XREC_ROUNDTRIP
360
7CD
  0
DICTIONARY
  5
7D0
330
13
100
AcDbDictionary
280
     1
281
     1
  3
ACAD_XREC_ROUNDTRIP
360
7D1
  0
DICTIONARY
  5
7D2
330
31
100
AcDbDictionary
280
     1
281
     1
  3
ACAD_XREC_ROUNDTRIP
360
7D3
  0
XRECORD
  5
7CF
102
{ACAD_REACTORS
330
7CE
102
}
330
7CE
100
AcDbXrecord
280
     1
102
MATERIAL
148
0.0
149
0.0
149
0.0
 93
        0
 94
       63
282
     0
 72
     1
 77
     1
171
     1
175
     1
179
     1
273
     0
  0
XRECORD
  5
7CD
102
{ACAD_REACTORS
330
7CC
102
}
330
7CC
100
AcDbXrecord
280
     1
102
MATERIAL
148
0.0
149
0.0
149
0.0
 93
        0
 94
       63
282
     0
 72
     1
 77
     1
171
     1
175
     1
179
     1
273
     0
  0
XRECORD
  5
7D1
102
{ACAD_REACTORS
330
7D0
102
}
330
7D0
100
AcDbXrecord
280
     1
102
MATERIAL
148
0.0
149
0.0
149
0.0
 93
        0
 94
       63
282
     0
 72
     1
 77
     1
171
     1
175
     1
179
     1
273
     0
  0
XRECORD
  5
7D3
102
{ACAD_REACTORS
330
7D2
102
}
330
7D2
100
AcDbXrecord
280
     1
102
ACAD_ROUNDTRIP_PRE2007_TABLESTYLE
 90
      512
 91
        0
  1

 92
      512
 93
        0
  2

 94
      512
 95
        0
  3

  0
ENDSEC
  0
EOF
